<svg id="Layer_2" data-name="Layer 2" xmlns="http://www.w3.org/2000/svg" viewBox="0 0 1000 1000"><defs><style>.cls-1{fill:#fff;}</style></defs><path id="OPEN_SEA_LOGO" data-name="OPEN SEA LOGO" class="cls-1" d="M500.13-.26C224-.26,0,223.7,0,499.87S224,1000,500.13,1000s500.13-224,500.13-500.13S776.4-.26,500.13-.26ZM246.76,516.68l2.1-3.41L379,309.72a4.48,4.48,0,0,1,7.8.6c21.71,48.71,40.51,109.33,31.71,147-3.7,15.5-14,36.51-25.61,55.91-1.5,2.81-3.1,5.61-4.9,8.31a4.42,4.42,0,0,1-3.7,1.9H250.56A4.42,4.42,0,0,1,246.76,516.68Zm579.85,70a4.54,4.54,0,0,1-2.7,4.2C813.81,595.2,779.3,611.1,765,631c-36.61,50.92-64.52,123.74-127,123.74H377.3c-92.43,0-167.25-75.12-167.25-167.85v-3a4.46,4.46,0,0,1,4.51-4.4H359.79a5,5,0,0,1,4.8,5.5,48.8,48.8,0,0,0,5.21,27.91,51.05,51.05,0,0,0,45.81,28.41h71.92V585.19H416.41a4.6,4.6,0,0,1-3.7-7.2c.8-1.2,1.6-2.4,2.6-3.8,6.7-9.6,16.3-24.41,25.9-41.31a330.38,330.38,0,0,0,17.91-35.81c1-2.2,1.8-4.5,2.7-6.7,1.4-3.9,2.8-7.6,3.8-11.2,1-3.11,1.9-6.31,2.7-9.31a146,146,0,0,0,3.4-32.81c0-4.5-.2-9.2-.6-13.6-.2-4.9-.8-9.8-1.4-14.7-.4-4.3-1.2-8.6-2-13-1.1-6.5-2.5-13-4.1-19.5l-.6-2.5c-1.2-4.5-2.3-8.7-3.7-13.2-4.1-14-8.7-27.71-13.71-40.52-1.8-5.1-3.8-10-5.9-14.8-3-7.4-6.1-14.1-8.9-20.4-1.5-2.91-2.7-5.51-3.9-8.21-1.4-3-2.8-6-4.3-8.9-1-2.2-2.2-4.3-3-6.3l-8.8-16.2A2.88,2.88,0,0,1,414,241l55,14.91h.4l7.2,2.1,8,2.2,2.9.8V228.4a28.41,28.41,0,0,1,28.3-28.61,27.52,27.52,0,0,1,19.91,8.41,28.75,28.75,0,0,1,8.3,20.2v48.51l5.9,1.6a8.26,8.26,0,0,1,1.3.7c1.4,1,3.5,2.6,6.1,4.61,2.1,1.6,4.3,3.6,6.91,5.7,5.3,4.3,11.7,9.8,18.6,16.1,1.8,1.6,3.6,3.2,5.3,4.9,8.9,8.3,18.91,18,28.51,28.81,2.7,3.1,5.3,6.1,8,9.4s5.5,6.5,7.9,9.7c3.3,4.31,6.7,8.81,9.81,13.51,1.4,2.2,3.1,4.5,4.4,6.7a209.34,209.34,0,0,1,10.7,18.1c1.4,2.81,2.8,5.91,4,8.91a123.81,123.81,0,0,1,8.4,24.9,27.1,27.1,0,0,1,1.2,5.5v.4a46.48,46.48,0,0,1,1,7.71,85.72,85.72,0,0,1-1.4,25.7c-.8,3.6-1.8,7-3,10.71-1.3,3.5-2.5,7.1-4.1,10.6a143.85,143.85,0,0,1-11,20.9c-1.4,2.5-3.1,5.11-4.7,7.61-1.8,2.6-3.7,5.1-5.3,7.5-2.3,3.1-4.71,6.3-7.21,9.2a97.59,97.59,0,0,1-6.9,8.7c-3.4,4.1-6.7,7.9-10.2,11.61a86.75,86.75,0,0,1-6.5,7.1c-2.2,2.5-4.5,4.7-6.5,6.7-3.5,3.5-6.31,6.1-8.71,8.4l-5.7,5.1a4.23,4.23,0,0,1-3,1.2H544v56.12h55.11a51.21,51.21,0,0,0,33.51-12.41,406.2,406.2,0,0,0,34-33.4,3.93,3.93,0,0,1,2.1-1.3l152.14-44a4.45,4.45,0,0,1,5.7,4.31v32.2Z"/></svg>