<svg id="Layer_1" data-name="Layer 1" xmlns="http://www.w3.org/2000/svg" viewBox="0 0 1000 1000"><defs><style>.cls-1{fill:#fff;}</style></defs><path id="TWITTER_LOGO" data-name="TWITTER LOGO" class="cls-1" d="M499.76.48C223.75.48,0,224.23,0,500.24S223.75,1000,499.76,1000,999.52,776.25,999.52,500.24,775.77.48,499.76.48ZM754.52,369.59q.4,8.46.4,17c0,173.73-132.25,374.07-374.07,374.07a372.11,372.11,0,0,1-201.53-59.1A264.82,264.82,0,0,0,374,647.14a131.64,131.64,0,0,1-122.8-91.3,133.65,133.65,0,0,0,24.75,2.32,131.08,131.08,0,0,0,34.64-4.61A131.53,131.53,0,0,1,205.1,424.64V423a131,131,0,0,0,59.56,16.44A131.61,131.61,0,0,1,224,263.9,373.28,373.28,0,0,0,495,401.26a132.89,132.89,0,0,1-3.39-30,131.53,131.53,0,0,1,227.42-90,262.47,262.47,0,0,0,83.51-31.9,131.87,131.87,0,0,1-57.81,72.73,262.52,262.52,0,0,0,75.51-20.71h0A267.83,267.83,0,0,1,754.52,369.59Z"/></svg>