<?xml version="1.0" standalone="no"?>
<!DOCTYPE svg PUBLIC "-//W3C//DTD SVG 20010904//EN"
 "http://www.w3.org/TR/2001/REC-SVG-20010904/DTD/svg10.dtd">
<svg version="1.0" xmlns="http://www.w3.org/2000/svg"
 width="1000.000000pt" height="1000.000000pt" viewBox="0 0 1000.000000 1000.000000"
 preserveAspectRatio="xMidYMid meet">
<metadata>
Created by potrace 1.14, written by Peter Selinger 2001-2017
</metadata>
<g transform="translate(0.000000,1000.000000) scale(0.100000,-0.100000)"
fill="#000000" stroke="none">
<path d="M0 5000 l0 -5000 5000 0 5000 0 0 5000 0 5000 -5000 0 -5000 0 0
-5000z m3450 3810 c24 -8 24 -8 3 -9 -13 -1 -23 -5 -23 -10 0 -5 12 -7 28 -3
102 25 289 -28 527 -149 88 -45 194 -102 235 -127 84 -51 221 -113 355 -162
137 -50 238 -104 368 -197 158 -113 180 -118 37 -9 -63 48 -161 113 -218 144
-70 39 -97 58 -83 60 11 2 46 -14 78 -35 88 -59 91 -60 74 -40 -23 29 6 19 46
-15 21 -18 32 -25 24 -15 -22 28 3 20 32 -10 28 -30 32 -33 147 -119 68 -50
290 -170 350 -189 14 -4 48 -18 75 -31 120 -55 285 -114 350 -126 84 -16 599
-17 1050 -4 312 9 494 1 715 -30 109 -16 156 -36 182 -77 8 -12 30 -60 48
-106 25 -59 45 -92 69 -112 19 -16 37 -26 39 -24 3 2 -15 30 -39 62 l-43 58
46 -37 c25 -21 48 -35 51 -31 13 13 73 -78 63 -95 -3 -4 4 -35 15 -67 15 -46
19 -76 14 -128 -7 -95 -39 -209 -80 -292 -40 -82 -46 -72 -10 15 43 103 58
184 50 283 l-7 87 -112 1 c-125 1 -112 16 17 18 44 1 77 5 77 11 0 13 -25 12
-325 -5 -137 -9 -326 -20 -420 -25 -93 -6 -206 -8 -250 -5 -154 11 -881 22
-970 14 -151 -13 -435 -48 -475 -59 -20 -5 -48 -19 -62 -29 -36 -29 -86 -146
-120 -283 -19 -80 -43 -147 -68 -193 -39 -70 -71 -172 -69 -216 1 -18 4 -14
14 16 16 49 20 39 35 -88 15 -130 47 -249 106 -392 15 -39 -22 2 -41 45 -10
22 -20 38 -23 36 -2 -3 16 -47 41 -100 37 -78 59 -109 127 -178 45 -46 79 -77
75 -69 -4 7 25 -9 64 -37 80 -56 131 -76 236 -91 81 -12 107 -7 280 59 180 67
252 101 292 134 21 18 54 43 74 57 53 36 184 158 177 165 -4 3 -17 -3 -29 -15
-25 -23 -44 -28 -33 -8 27 47 74 72 89 47 11 -18 21 -11 73 58 28 37 71 80 97
96 25 16 45 33 45 37 0 12 -17 11 -24 0 -4 -5 -30 -26 -59 -46 -28 -21 -44
-29 -35 -20 12 13 14 24 8 41 -8 19 -4 27 25 48 37 28 51 32 57 14 3 -7 14 -9
31 -4 15 3 25 11 22 16 -4 6 -11 8 -16 5 -12 -8 -11 1 5 55 8 28 15 39 19 30
4 -8 4 10 1 40 l-5 55 24 -50 c44 -91 115 -192 151 -213 19 -11 55 -48 80 -82
58 -80 185 -189 274 -234 47 -24 39 -12 -13 18 -25 15 -45 31 -45 35 0 10 136
-43 157 -61 10 -8 18 -7 31 4 9 9 41 18 70 20 41 4 60 12 84 34 36 34 77 117
79 159 1 17 5 41 10 55 6 17 7 -5 5 -64 -2 -54 0 -83 5 -75 5 8 9 104 10 214
1 302 22 185 28 -164 1 -25 4 -32 12 -24 10 10 3 147 -17 361 -9 93 14 80 60
-36 22 -53 66 -149 98 -213 86 -174 151 -365 117 -343 -9 5 -10 2 -4 -12 32
-76 47 -142 27 -118 -11 12 -40 103 -44 134 -3 23 -5 21 -30 -20 -15 -25 -41
-60 -58 -78 -17 -17 -29 -36 -25 -41 3 -5 -3 -12 -13 -15 -10 -3 -38 -27 -62
-53 -25 -26 -35 -39 -22 -29 12 11 22 14 22 8 0 -6 -5 -14 -10 -17 -6 -4 -24
-33 -40 -66 -32 -63 -45 -75 -38 -34 3 13 1 22 -3 19 -15 -9 -10 -78 17 -221
30 -165 67 -262 178 -472 85 -161 114 -196 177 -207 33 -6 32 -4 -47 73 -68
67 -85 90 -113 157 -18 43 -30 80 -27 83 3 3 24 1 48 -5 23 -6 45 -9 50 -6 11
7 -7 46 -46 101 -30 42 -56 103 -44 103 3 0 22 -25 43 -55 20 -30 39 -55 41
-55 7 0 -35 78 -46 85 -18 11 -12 91 9 116 l20 24 -4 -70 c-3 -64 -1 -75 31
-135 46 -86 77 -182 62 -191 -8 -5 0 -26 26 -65 77 -116 194 -232 271 -269 86
-41 137 -74 130 -85 -3 -5 0 -12 6 -16 8 -4 9 -3 5 4 -11 18 10 14 25 -5 10
-11 10 -14 2 -9 -22 12 -14 1 14 -25 25 -22 26 -22 9 -1 -25 29 -10 29 22 0
14 -13 22 -16 18 -8 -5 8 2 4 15 -10 13 -14 20 -19 14 -10 -5 8 28 -25 75 -74
86 -89 151 -188 171 -259 12 -45 15 -75 25 -256 l7 -133 -51 37 c-29 20 -54
47 -57 58 -2 12 -6 31 -8 42 -3 11 -5 4 -6 -16 -1 -23 7 -46 19 -62 11 -14 16
-28 11 -31 -5 -3 -40 -12 -78 -20 -37 -8 -80 -19 -95 -25 -14 -5 -46 -13 -69
-16 -44 -6 -93 -17 -138 -31 -18 -5 -22 -4 -16 5 6 10 3 11 -12 2 -26 -13
-115 -6 -128 12 -7 9 -20 11 -43 6 -34 -7 -39 -3 -53 39 -8 25 -8 25 -6 -8 2
-35 2 -35 -43 -37 -33 -1 -38 0 -20 6 20 5 22 8 9 13 -9 4 -28 0 -43 -7 -25
-13 -26 -13 -27 18 l-1 32 -9 -32 c-12 -40 -29 -52 -30 -21 l0 23 -9 -23 c-15
-35 -30 -26 -32 21 l-1 42 -4 -40 c-3 -22 -8 -42 -13 -45 -5 -3 -41 -7 -80 -8
-152 -7 -165 16 -83 141 58 87 69 101 61 77 -16 -46 -15 -60 1 -25 10 22 22
56 25 75 l6 35 -13 -30 c-12 -26 -14 -27 -20 -11 -4 10 -5 28 -2 40 6 21 6 21
-9 2 -9 -11 -16 -27 -16 -36 0 -9 -16 -42 -35 -74 -19 -32 -41 -77 -49 -100
-8 -22 -21 -42 -30 -44 -23 -5 -20 6 19 68 51 79 43 81 -17 4 -30 -40 -47 -69
-40 -72 15 -5 16 -32 2 -32 -5 0 -10 4 -10 9 0 13 -39 21 -46 9 -3 -5 -12 -7
-20 -4 -8 3 -25 1 -39 -4 -18 -7 -25 -17 -25 -37 0 -24 -9 -33 -62 -62 -35
-19 -75 -43 -90 -53 -29 -20 -40 -14 -12 6 13 10 13 18 -8 71 l-23 60 -2 -55
c-5 -94 -11 -116 -39 -128 -39 -18 -42 -14 -10 12 l30 23 -14 56 -13 56 -28
-36 c-16 -20 -29 -41 -30 -47 0 -6 -5 3 -10 19 -5 17 -7 46 -5 65 4 22 -3 10
-19 -34 -29 -81 -31 -93 -10 -76 9 8 15 9 15 2 0 -16 -16 -23 -35 -16 -14 6
-15 16 -10 69 5 42 3 65 -4 69 -7 5 -11 -3 -11 -22 0 -39 -46 -167 -55 -153
-4 7 -2 17 3 24 14 19 20 53 11 68 -5 9 -10 4 -15 -17 -10 -43 -14 -47 -30
-27 -12 16 -13 13 -15 -32 l-1 -50 -12 46 c-7 25 -25 63 -40 85 -14 21 -26 50
-26 64 -1 22 -2 23 -11 7 -6 -9 -15 -14 -21 -11 -7 5 -9 -2 -4 -22 19 -88 19
-95 1 -88 -16 7 -16 5 0 -26 14 -27 14 -34 4 -41 -16 -9 -31 22 -28 56 1 11
-4 39 -11 63 l-14 44 -18 -24 c-9 -13 -18 -30 -17 -38 0 -11 3 -9 11 5 11 19
11 19 19 0 11 -28 11 -65 0 -65 -5 0 -13 10 -18 23 -6 19 -8 17 -13 -18 -4
-27 -1 -46 8 -57 12 -15 12 -16 -7 -11 -18 5 -21 13 -21 57 0 45 -3 52 -21 53
-16 2 -19 -2 -14 -15 12 -28 11 -45 -4 -50 -10 -3 -12 5 -7 39 10 67 12 159 4
159 -5 0 -9 -12 -10 -27 -2 -43 -4 -56 -14 -88 -4 -16 -7 -38 -5 -47 1 -10 -2
-18 -7 -18 -13 0 -43 36 -36 43 3 3 3 29 -1 58 -8 56 -19 51 -30 -13 -7 -40
-17 -52 -53 -63 l-23 -7 20 41 c24 47 26 61 8 61 -7 0 -18 -12 -24 -27 -6 -16
-19 -41 -29 -58 -31 -55 -35 -66 -29 -86 5 -15 2 -19 -19 -19 -14 0 -26 5 -26
10 0 6 8 10 17 10 13 0 14 3 5 12 -18 18 -15 28 10 28 28 0 12 15 -26 24 -22
5 -27 4 -23 -6 3 -8 -1 -25 -8 -37 -12 -23 -13 -22 -19 21 -5 30 -2 56 9 81
17 41 21 112 5 102 -5 -3 -10 -16 -10 -28 0 -40 -24 -127 -35 -124 -20 7 -29
56 -18 99 l11 42 -19 -24 c-10 -14 -24 -41 -30 -60 -6 -19 -16 -41 -22 -48 -7
-9 -6 -11 7 -6 14 6 15 4 1 -22 -18 -35 -19 -51 -2 -57 6 -3 2 -6 -10 -6 -23
-1 -39 14 -25 23 5 3 8 29 7 58 -1 29 -3 75 -4 101 0 29 -5 46 -11 42 -5 -3
-10 -15 -10 -25 0 -25 -41 -110 -53 -110 -6 0 -7 35 -4 88 l6 87 -22 -68 c-26
-77 -28 -76 -80 13 -26 43 -27 44 -27 16 0 -31 39 -108 51 -101 9 6 69 -65 69
-82 0 -16 -56 -17 -66 -2 -5 9 1 10 20 5 37 -9 31 4 -17 39 -23 17 -49 45 -58
63 -10 19 -19 27 -21 20 -6 -17 -30 27 -39 72 -6 31 -7 32 -8 8 0 -16 -5 -28
-11 -28 -18 0 32 -96 73 -137 41 -43 41 -43 15 -43 -15 0 -30 5 -34 11 -5 8
-9 7 -14 -1 -6 -9 -18 2 -40 36 l-32 49 7 -44 c4 -33 2 -48 -11 -62 -15 -16
-54 -27 -54 -15 0 2 -3 13 -7 23 -6 17 -5 17 16 -2 34 -29 43 -6 36 89 -10
125 -26 139 -20 16 7 -126 -7 -126 -30 0 -13 78 -14 80 -11 25 2 -33 7 -69 11
-80 6 -16 3 -15 -14 5 -21 26 -21 26 -25 -22 -1 -7 -9 -19 -18 -26 -10 -7 -18
-22 -18 -33 0 -10 -5 -19 -11 -19 -7 0 -9 11 -6 30 4 16 2 32 -3 35 -6 4 -6
13 -1 23 5 9 14 58 20 107 6 50 14 108 17 130 5 29 4 37 -4 30 -6 -6 -16 -55
-22 -110 -16 -144 -20 -165 -30 -165 -5 0 -6 -16 -3 -36 5 -32 4 -36 -13 -32
-26 5 -26 88 0 117 13 14 16 28 12 46 -4 15 -3 24 1 22 4 -3 8 59 8 136 0 78
6 171 12 207 7 36 15 128 18 205 4 77 8 142 11 144 2 2 4 -12 4 -33 0 -48 21
-95 55 -126 31 -27 25 -9 -9 28 -20 23 -21 32 -18 234 2 190 5 217 26 277 13
36 26 83 30 105 4 21 9 36 12 33 5 -5 -17 -107 -31 -142 -5 -11 -5 -17 0 -13
4 4 15 2 24 -4 13 -10 14 -9 5 1 -12 13 14 130 40 179 l13 25 7 -36 c10 -53
24 -54 32 -1 6 43 8 45 19 25 9 -18 14 -20 22 -9 6 7 12 19 15 27 2 8 14 -13
26 -47 19 -52 35 -73 105 -137 45 -42 91 -81 102 -87 11 -5 -3 13 -31 40 -51
48 -52 50 -65 138 -8 49 -14 123 -14 164 0 64 5 85 32 140 29 60 49 85 113
135 24 20 24 19 -3 -20 l-28 -40 33 40 c43 52 132 143 123 128 -10 -20 14 -15
47 8 20 14 28 28 25 40 -3 10 -1 19 4 21 5 2 -2 35 -15 73 -14 39 -25 62 -25
52 -2 -30 -19 -9 -26 31 -9 54 -28 79 -21 27 3 -22 8 -67 11 -100 5 -55 5 -58
-9 -40 -9 11 -16 27 -16 34 0 26 -18 -2 -22 -34 l-4 -30 -8 30 c-15 57 -20 60
-26 15 l-6 -45 -12 28 c-7 16 -12 34 -12 42 0 8 -4 17 -10 20 -6 4 -10 -17
-10 -55 0 -38 -4 -59 -10 -55 -5 3 -10 27 -10 53 0 62 -19 94 -21 37 -1 -22
-1 -48 -1 -58 1 -10 -2 -15 -8 -12 -19 12 -167 -38 -275 -94 -60 -30 -116 -55
-123 -54 -7 0 -11 -1 -8 -5 3 -3 -12 -25 -34 -49 -39 -42 -125 -205 -233 -444
-27 -59 -60 -121 -75 -138 -26 -30 -45 -36 -132 -43 -43 -3 -160 4 -156 10 2
4 -11 6 -31 4 -23 -3 -33 -1 -29 6 3 6 -7 10 -27 10 -36 -1 -284 27 -665 73
-139 17 -256 29 -259 26 -3 -3 -2 -21 3 -39 4 -18 9 -27 11 -20 3 8 27 12 71
12 126 0 608 -59 697 -85 28 -8 37 -13 22 -11 -25 3 -26 2 -13 -13 16 -18 49
-89 51 -108 0 -6 4 -15 8 -19 4 -4 7 15 8 42 1 44 2 46 10 19 4 -16 11 -47 14
-68 3 -21 10 -35 16 -32 5 4 9 -3 9 -14 0 -15 -7 -21 -22 -22 -13 0 1 -6 30
-13 123 -30 55 -35 -86 -7 -54 11 -144 25 -202 31 -117 13 -530 82 -630 106
-36 9 -175 52 -310 96 -135 43 -301 93 -370 109 -69 16 -141 36 -160 44 -19 7
-71 21 -115 30 -44 9 -100 23 -125 30 -112 36 -257 58 -375 59 -103 0 -133 -4
-209 -27 -100 -31 -101 -30 -143 40 -13 24 -27 43 -29 43 -13 0 0 -42 22 -75
l25 -38 -31 27 c-17 14 -36 27 -41 27 -5 1 -13 2 -17 3 -19 3 -112 96 -122
121 l-10 26 -30 -21 c-16 -11 -32 -25 -35 -30 -9 -15 -25 -12 -25 4 0 17 95
90 133 103 25 7 34 22 64 98 30 78 35 102 36 180 0 77 -3 99 -25 147 -36 78
-98 142 -176 180 -57 28 -78 33 -161 36 -87 4 -99 2 -124 -18 -33 -26 -63 -81
-73 -135 -3 -22 -12 -51 -19 -65 -29 -59 -36 -201 -12 -228 9 -9 20 -29 26
-43 11 -31 122 -120 154 -124 12 -1 60 -10 106 -19 l83 -18 49 48 c26 26 53
60 60 76 6 16 14 27 16 24 10 -10 -43 -99 -79 -132 -35 -31 -45 -35 -72 -29
-17 4 -49 10 -71 14 -22 4 -50 13 -62 19 -12 7 -25 12 -29 12 -13 0 28 -39 47
-45 11 -4 19 -13 19 -21 0 -19 -9 -18 -33 4 -19 17 -20 16 -14 -28 19 -140 19
-140 -3 -70 -10 36 -19 81 -20 100 0 38 0 38 -98 41 -29 1 -31 3 -20 17 7 10
-2 4 -19 -11 -26 -25 -33 -40 -43 -108 -12 -75 -11 -80 11 -126 45 -91 137
-120 278 -88 116 26 127 28 119 21 -10 -12 -178 -46 -222 -46 -98 0 -189 57
-241 151 -29 51 -30 59 -29 169 0 101 -1 109 -10 70 -6 -25 -9 -89 -8 -142 2
-76 0 -97 -10 -93 -22 9 -50 106 -54 185 -3 74 -12 117 -41 194 -7 21 -12 40
-10 43 3 2 21 -11 41 -30 l36 -34 0 46 c0 152 13 250 45 346 6 16 5 17 -4 5
-9 -12 -11 -11 -11 8 0 39 43 213 50 202 13 -21 70 134 70 191 0 21 4 40 9 43
5 4 37 -13 72 -35 71 -47 219 -129 234 -129 6 0 -27 20 -73 45 -45 24 -116 68
-158 96 -135 94 -514 454 -598 569 -54 73 -63 84 -48 55 28 -56 116 -160 219
-261 l115 -114 9 -97 c16 -186 3 -275 -16 -103 -9 84 -44 238 -56 245 -5 4 -4
-6 1 -21 6 -15 15 -84 20 -153 5 -69 12 -149 16 -177 4 -33 2 -54 -5 -58 -7
-4 -11 1 -11 13 0 12 -4 21 -10 21 -5 0 -10 9 -10 19 0 11 -4 23 -10 26 -5 3
-10 17 -10 30 0 15 -9 29 -21 36 -20 10 -21 9 -15 -16 4 -17 3 -24 -4 -20 -5
3 -10 25 -11 48 0 23 -4 65 -9 92 -11 56 -22 163 -14 128 3 -13 12 -23 19 -23
21 0 27 17 11 33 -8 8 -12 18 -8 22 4 5 -1 5 -11 2 -10 -4 -16 -3 -13 1 2 4 1
14 -4 22 -17 27 -23 -40 -16 -169 8 -150 24 -328 32 -356 l6 -20 -15 20 c-7
11 -17 34 -20 50 -8 42 -27 89 -33 82 -8 -8 14 -121 42 -212 13 -44 30 -97 36
-119 7 -21 32 -73 56 -115 24 -42 45 -81 46 -88 1 -7 6 -16 11 -20 4 -4 5 -1
1 7 -4 8 11 -4 33 -27 23 -23 41 -50 40 -60 0 -15 -2 -14 -9 4 -5 12 -15 25
-23 30 -7 4 -16 16 -20 26 -7 18 -27 19 -39 2 -10 -13 -128 234 -131 274 -1
17 -6 31 -10 31 -5 0 -6 4 -3 9 3 5 -5 42 -19 83 -14 40 -28 100 -32 133 -3
34 -12 64 -19 68 -8 4 -14 17 -14 27 0 11 -4 39 -10 62 -5 24 -14 70 -21 103
-26 134 -63 269 -119 435 -76 225 -97 362 -82 538 13 144 46 265 111 397 27
55 67 139 89 187 46 100 90 167 145 221 21 20 35 42 32 47 -4 6 -1 9 6 8 7 -2
14 7 15 19 1 12 12 35 25 52 37 46 45 36 9 -11 -29 -39 -28 -38 13 7 25 28 43
53 41 57 -4 7 93 92 141 123 78 51 167 83 149 54 -4 -7 18 7 49 30 31 23 67
45 79 50 13 5 43 24 68 42 25 18 68 45 95 60 28 15 95 52 149 82 55 31 103 54
108 51 4 -3 8 0 8 7 0 7 3 10 6 6 4 -3 29 6 58 20 35 18 46 21 37 9 -7 -9 -21
-16 -30 -17 -9 0 -11 -3 -4 -5 12 -6 75 24 108 51 18 15 17 15 -13 0 -19 -9
-36 -14 -39 -12 -4 5 201 107 213 107 3 0 2 -5 -1 -10 -4 -6 24 2 62 16 241
94 363 120 443 94z m-1690 -764 c0 -3 -4 -8 -10 -11 -5 -3 -10 -1 -10 4 0 6 5
11 10 11 6 0 10 -2 10 -4z m5728 -788 c-5 -15 -68 -24 -68 -9 0 12 18 19 48
20 15 1 22 -4 20 -11z m95 5 c-7 -2 -21 -2 -30 0 -10 3 -4 5 12 5 17 0 24 -2
18 -5z m-200 -20 c-13 -2 -33 -2 -45 0 -13 2 -3 4 22 4 25 0 35 -2 23 -4z
m537 -215 c-5 -51 -19 -129 -31 -173 -11 -44 -24 -107 -29 -140 l-7 -60 -2 55
c0 30 10 100 24 155 16 62 25 132 26 185 2 91 7 112 20 87 5 -9 5 -56 -1 -109z
m-1233 -208 c34 -127 37 -144 37 -285 0 -82 -3 -166 -7 -185 -4 -19 -4 -29 -1
-22 10 22 34 13 34 -12 0 -33 -18 -43 -35 -20 -11 16 -14 17 -18 4 -3 -8 -13
-35 -21 -60 l-16 -45 5 44 c3 24 15 69 27 100 44 117 35 214 -48 542 -48 192
-60 289 -18 154 13 -44 41 -141 61 -215z m1188 123 c-18 -101 -31 -125 -22
-40 10 98 31 195 35 163 2 -17 -4 -72 -13 -123z m-161 -10 c-8 -21 -28 -126
-44 -233 l-29 -195 6 180 c3 99 10 191 15 205 8 20 55 80 64 80 1 0 -4 -17
-12 -37z m-601 -10 c-10 -87 -23 -133 -46 -165 -14 -19 -21 -48 -25 -101 -6
-93 15 -158 100 -324 71 -138 55 -135 -25 5 -69 121 -95 197 -107 313 -14 138
10 232 72 284 16 14 31 25 32 25 2 0 1 -17 -1 -37z m-618 -33 l40 -25 -18 28
c-22 34 -15 34 28 1 25 -19 35 -36 40 -67 4 -23 14 -52 22 -65 8 -13 12 -29 9
-35 -3 -8 -5 -6 -5 3 -1 8 -21 28 -45 43 -25 15 -71 60 -103 100 -38 47 -49
67 -33 56 14 -8 43 -26 65 -39z m122 -77 c-2 -16 -4 -5 -4 22 0 28 2 40 4 28
2 -13 2 -35 0 -50z m1117 3 c-3 -21 -8 -35 -11 -32 -2 2 -1 20 3 40 3 21 8 35
11 32 2 -2 1 -20 -3 -40z m-848 -26 c5 -24 3 -32 -4 -25 -5 6 -13 26 -17 45
-5 25 -4 32 4 25 6 -6 14 -26 17 -45z m80 -9 c-7 -29 -12 -61 -9 -70 4 -16
-22 -49 -32 -40 -6 7 20 122 34 147 19 36 22 21 7 -37z m477 -8 c-10 -15 -21
-50 -25 -77 l-7 -51 3 57 c2 39 9 64 21 78 25 28 29 25 8 -7z m-545 -103 c0
-44 4 -85 8 -91 9 -16 21 -219 12 -219 -5 0 -8 24 -8 53 0 28 -5 81 -11 117
-6 36 -12 86 -14 111 -2 25 -9 58 -15 74 -10 26 -9 27 7 14 15 -12 16 -12 10
4 -3 9 -3 17 2 17 4 0 8 -36 9 -80z m726 -64 c-14 -130 -24 -172 -24 -100 0
65 23 245 31 237 3 -5 0 -66 -7 -137z m-623 -36 c6 -41 19 -95 30 -119 21 -49
19 -66 -4 -29 -20 29 -61 254 -50 271 5 8 9 1 10 -18 2 -16 8 -64 14 -105z
m66 108 c-3 -8 -6 -5 -6 6 -1 11 2 17 5 13 3 -3 4 -12 1 -19z m-828 -14 c2 -2
-14 -4 -37 -4 -23 0 -42 5 -42 10 0 10 67 4 79 -6z m-169 -304 c63 -67 132
-148 155 -180 22 -32 60 -82 85 -111 34 -40 38 -48 18 -35 -14 9 -50 52 -79
94 -29 42 -98 124 -153 182 -56 58 -148 160 -204 225 -102 118 -102 118 -20
33 45 -48 135 -141 198 -208z m1700 150 c9 -117 9 -144 -7 -214 -13 -63 -24
-87 -47 -111 -17 -17 -24 -22 -14 -11 30 39 40 100 45 289 3 103 7 186 9 185
2 -2 8 -64 14 -138z m-1658 -51 c54 -57 111 -113 127 -124 25 -16 51 -52 51
-70 0 -5 -113 109 -280 282 -61 63 -77 83 -45 57 28 -23 94 -88 147 -145z
m277 84 c-1 -32 -4 -96 -8 -143 l-6 -85 -7 134 c-4 74 -4 139 -2 143 14 23 24
2 23 -49z m94 -12 c-3 -23 -1 -41 6 -45 7 -5 11 2 11 17 0 29 18 47 45 43 17
-2 20 -12 23 -64 3 -54 1 -62 -15 -62 -17 -1 -17 -1 -1 -10 15 -10 15 -15 -10
-61 -14 -28 -43 -65 -65 -82 l-39 -32 22 -17 c12 -10 28 -18 36 -18 16 0 -4
-78 -42 -158 -24 -49 -112 -152 -132 -152 -4 0 14 23 41 51 56 59 120 183 115
225 -2 23 -9 28 -35 31 -17 2 -34 -1 -38 -7 -3 -5 -11 -10 -16 -10 -6 0 1 21
14 48 26 48 51 165 63 284 4 37 10 65 14 63 5 -3 6 -22 3 -44z m-136 -46 c0
-48 -2 -68 -6 -50 -5 23 -12 30 -29 29 -21 -1 -22 2 -16 45 8 57 12 63 32 59
14 -3 17 -17 19 -83z m1382 -160 c-4 -39 -13 -82 -19 -95 -9 -22 -10 -20 -5
15 3 22 9 96 13 165 7 122 7 123 13 55 3 -38 2 -102 -2 -140z m-519 110 c0 -5
-5 -3 -10 5 -5 8 -10 20 -10 25 0 6 5 3 10 -5 5 -8 10 -19 10 -25z m-925 -15
c-3 -6 -21 -17 -38 -26 -35 -18 -22 1 15 21 30 17 30 17 23 5z m329 -100 c-23
-98 -45 -172 -51 -167 -2 3 8 60 23 126 16 66 32 117 36 113 4 -4 1 -36 -8
-72z m286 31 c0 -5 -37 -36 -82 -69 -100 -72 -130 -108 -198 -238 -29 -54 -64
-110 -78 -124 l-25 -25 20 30 c23 36 93 182 93 195 0 11 76 97 143 162 26 26
61 50 77 53 17 4 30 13 30 21 0 9 5 12 10 9 6 -3 10 -10 10 -14z m-560 -32
c27 -11 51 -26 53 -33 3 -7 -22 1 -54 16 -32 16 -59 30 -59 33 0 8 9 6 60 -16z
m-336 -49 c17 -17 -38 -11 -60 6 -18 15 -17 15 16 10 19 -4 39 -11 44 -16z
m54 -118 c26 -11 54 -23 62 -26 8 -3 -7 -4 -35 -1 -27 3 -58 5 -67 6 -25 1
-37 21 -31 54 6 28 7 28 16 9 5 -12 30 -31 55 -42z m1348 33 c16 -8 39 -15 52
-15 12 0 22 -4 22 -10 0 -21 -95 2 -104 25 -7 19 -5 19 30 0z m-5591 -25 c10
-11 16 -20 13 -20 -3 0 -13 9 -23 20 -10 11 -16 20 -13 20 3 0 13 -9 23 -20z
m24 -223 c0 -40 -4 -103 -8 -142 -4 -38 -5 -83 -1 -100 7 -31 12 8 29 220 5
52 6 -15 3 -160 -3 -137 -10 -302 -16 -365 l-11 -115 -53 65 c-65 80 -125 195
-146 278 -21 84 -19 89 7 22 33 -82 124 -255 143 -271 15 -12 16 -11 9 11 -20
61 -25 102 -25 205 0 127 11 129 34 5 l16 -85 -6 70 c-13 150 -1 451 17 439 5
-3 9 -38 8 -77z m4034 56 c15 -7 27 -15 27 -18 0 -7 -90 27 -96 37 -8 12 27 3
69 -19z m-3868 -3 c3 -5 1 -10 -4 -10 -6 0 -11 5 -11 10 0 6 2 10 4 10 3 0 8
-4 11 -10z m4475 -74 c0 -3 -4 -8 -10 -11 -5 -3 -10 -1 -10 4 0 6 5 11 10 11
6 0 10 -2 10 -4z m-4953 -78 c-3 -7 -5 -2 -5 12 0 14 2 19 5 13 2 -7 2 -19 0
-25z m4790 6 c-3 -3 -12 -4 -19 -1 -8 3 -5 6 6 6 11 1 17 -2 13 -5z m1920 -56
c-3 -7 -5 -2 -5 12 0 14 2 19 5 13 2 -7 2 -19 0 -25z m-90 -25 c-3 -10 -5 -4
-5 12 0 17 2 24 5 18 2 -7 2 -21 0 -30z m100 -25 c-3 -7 -5 -2 -5 12 0 14 2
19 5 13 2 -7 2 -19 0 -25z m-6539 -110 c22 -68 43 -136 46 -153 7 -28 6 -29
-7 -10 -7 11 -22 40 -32 65 -22 55 -65 231 -55 225 5 -3 26 -60 48 -127z
m6398 95 c-11 -11 -19 6 -11 24 8 17 8 17 12 0 3 -10 2 -21 -1 -24z m-1989 -9
c-3 -3 -12 -4 -19 -1 -8 3 -5 6 6 6 11 1 17 -2 13 -5z m-67 -24 c-45 -25 -58
-25 -35 0 10 11 30 20 44 20 25 -1 25 -2 -9 -20z m2200 -120 c-10 -23 -10 -22
-5 9 3 18 6 57 7 85 l2 51 3 -60 c2 -34 -1 -72 -7 -85z m-5970 -335 c-8 -10
-10 -24 -4 -42 l8 -28 6 35 7 35 2 -40 c0 -22 5 -56 10 -75 17 -64 22 -110 13
-110 -5 0 -14 22 -20 50 -11 48 -25 75 -100 187 -19 28 -31 56 -28 62 4 6 -19
11 -66 13 l-73 3 78 14 c42 8 77 19 78 25 0 6 5 0 10 -13 5 -13 7 -31 4 -40
-7 -22 33 -87 46 -74 7 7 3 30 -11 69 -37 102 -33 112 11 27 34 -68 40 -85 29
-98z m4345 51 l30 -16 -30 6 c-39 9 -43 11 -56 37 -11 21 -11 21 7 6 10 -9 33
-24 49 -33z m-4395 -110 c23 -38 23 -38 2 -27 -24 13 -42 41 -42 67 0 21 8 13
40 -40z m-130 -88 c30 -14 64 -29 75 -32 19 -7 19 -8 2 -17 -9 -6 -15 -14 -12
-20 13 -21 -16 -6 -74 36 -34 25 -61 50 -61 56 0 6 3 9 8 7 4 -2 32 -16 62
-30z m219 -171 c8 -11 5 -13 -19 -9 -17 2 -33 8 -36 13 -9 14 42 10 55 -4z
m-23 -27 c8 0 14 -5 14 -11 0 -12 -40 -2 -55 14 -7 7 -4 8 8 3 10 -3 25 -6 33
-6z m9 -55 c18 22 24 26 25 13 0 -22 -38 -48 -71 -48 -21 0 -29 7 -38 31 -16
46 -15 46 24 9 l36 -35 24 30z m-173 -30 c-2 -14 -6 -25 -8 -25 -2 0 -4 11 -4
25 0 14 4 25 9 25 4 0 6 -11 3 -25z m4035 -17 c-3 -8 -6 -5 -6 6 -1 11 2 17 5
13 3 -3 4 -12 1 -19z m-3527 -178 c0 -5 -10 -10 -22 -10 -19 0 -20 2 -8 10 19
13 30 13 30 0z m-370 -22 c0 -10 -19 -9 -45 2 -16 7 -14 9 13 7 17 -1 32 -5
32 -9z m1126 -55 c-10 -83 -18 -125 -23 -120 -5 6 18 177 25 177 2 0 1 -26 -2
-57z m-782 21 c8 -22 6 -23 -26 -17 -42 8 -35 23 13 32 4 0 10 -6 13 -15z
m602 -133 c15 -48 19 -101 6 -85 -16 17 -62 173 -62 206 1 30 2 28 21 -22 11
-30 27 -75 35 -99z m-687 123 c2 -2 -30 -4 -72 -4 -42 0 -78 4 -82 9 -5 9 144
3 154 -5z m736 -51 c-10 -42 -18 -18 -9 29 6 32 9 37 12 19 2 -12 1 -34 -3
-48z m-427 32 c-3 -3 -9 2 -12 12 -6 14 -5 15 5 6 7 -7 10 -15 7 -18z m1112
-29 c0 -3 -4 -8 -10 -11 -5 -3 -10 -1 -10 4 0 6 5 11 10 11 6 0 10 -2 10 -4z
m-1190 -48 c16 -17 28 -33 26 -35 -7 -7 -32 10 -54 38 -32 39 -8 37 28 -3z
m1124 -71 c-19 -55 -35 -71 -24 -24 8 36 29 81 36 75 2 -3 -3 -26 -12 -51z
m-133 12 c-9 -22 -10 -22 -10 -3 -1 11 2 24 6 27 12 12 14 0 4 -24z m2250
-161 c-8 -29 -9 -24 -10 37 0 39 3 88 7 110 6 35 7 30 10 -37 2 -42 -1 -92 -7
-110z m45 94 c-13 -12 -16 8 -9 49 l8 44 3 -44 c2 -23 1 -46 -2 -49z m-2415
51 c6 -15 17 -61 24 -101 9 -48 25 -90 45 -120 17 -26 36 -66 42 -89 13 -52
37 -78 39 -42 1 18 3 15 9 -11 26 -117 199 -557 269 -684 23 -42 46 -88 51
-103 l10 -28 -20 25 c-31 38 -97 154 -129 227 -20 46 -30 60 -35 48 -3 -9 -3
-27 0 -40 3 -12 2 -25 -3 -28 -11 -7 2 -164 23 -276 8 -46 13 -85 11 -87 -2
-3 -15 31 -28 73 l-24 78 -3 -47 c-2 -27 -7 -48 -11 -48 -4 0 -18 25 -30 55
-13 30 -26 55 -30 55 -4 0 -8 6 -9 13 -3 41 -23 194 -27 205 -7 19 5 63 16 56
5 -3 9 9 9 26 0 17 -4 29 -9 25 -6 -3 -12 14 -15 37 -3 24 -10 80 -16 126 -6
45 -8 92 -5 102 4 11 3 34 0 51 -7 30 -7 30 -32 14 -28 -19 -47 -10 -20 9 22
17 23 51 1 42 -13 -5 -14 -4 -5 7 7 9 9 31 5 60 l-7 46 -42 -44 c-24 -24 -45
-52 -47 -61 -2 -12 -19 2 -58 50 -68 83 -120 139 -125 134 -2 -2 6 -24 17 -48
11 -25 22 -53 23 -64 2 -16 -1 -15 -17 5 -10 13 -27 40 -37 59 -10 19 -30 55
-44 80 -46 81 -52 160 -12 160 8 0 15 3 15 8 0 4 5 14 10 22 8 12 15 9 43 -18
l34 -33 37 20 c55 31 43 45 120 -133 15 -32 29 -57 32 -53 3 3 -1 18 -9 34 -7
15 -22 57 -32 93 -9 36 -24 78 -32 93 -14 27 -11 47 8 47 5 0 14 -12 20 -27z
m309 -219 c-11 -24 -20 -48 -20 -53 0 -5 -5 -11 -11 -13 -6 -2 -15 -22 -19
-43 -8 -40 -8 -40 -9 -7 0 18 5 45 13 60 7 15 17 45 21 67 4 22 10 34 12 28
13 -36 23 -2 25 85 l2 97 3 -89 c3 -73 0 -97 -17 -132z m-750 144 c0 -21 -19
-4 -29 25 l-11 32 20 -25 c11 -14 20 -28 20 -32z m67 20 c-3 -8 -6 -5 -6 6 -1
11 2 17 5 13 3 -3 4 -12 1 -19z m487 -60 c4 -27 9 -48 12 -48 3 0 20 7 40 15
31 13 36 13 41 -1 5 -13 8 -13 24 2 25 23 25 3 -1 -54 -14 -31 -29 -47 -56
-58 -24 -10 -40 -12 -46 -6 -16 16 -38 122 -37 182 0 62 12 46 23 -32z m356
-37 c0 -2 -7 2 -15 9 -9 7 -15 28 -14 49 l0 36 15 -45 c7 -25 14 -47 14 -49z
m-736 -111 c63 -97 63 -98 43 -81 -10 8 -45 55 -78 105 -40 60 -52 82 -34 66
15 -14 46 -54 69 -90z m2572 38 c-4 -29 -16 -89 -26 -133 -57 -242 -119 -590
-107 -602 3 -2 11 20 18 49 l14 53 5 -95 c3 -52 4 -97 3 -99 -1 -2 -13 4 -27
12 -35 23 -44 106 -23 190 18 68 25 152 14 163 -4 4 -7 -8 -7 -27 -1 -39 -38
-215 -39 -184 -1 27 76 456 83 463 4 3 7 -6 7 -19 2 -26 20 81 21 119 0 21 1
22 13 6 11 -16 13 -14 19 17 20 99 30 139 34 139 2 0 1 -24 -2 -52z m-1966
-34 c-17 -44 -19 -46 -20 -19 0 28 27 82 36 73 2 -3 -5 -26 -16 -54z m2020
-168 c-12 -50 -23 -100 -26 -111 -4 -15 -3 -17 4 -5 5 8 18 51 28 95 23 106
30 71 8 -47 -9 -51 -20 -118 -24 -148 -4 -30 -22 -109 -40 -175 -18 -66 -35
-130 -37 -142 -7 -32 -17 -29 -31 10 -21 58 -25 122 -12 198 19 115 29 124 25
24 -3 -70 -2 -80 5 -45 4 25 9 88 9 140 0 52 5 111 10 130 8 30 9 24 10 -44 1
-44 3 -77 5 -75 3 3 10 43 16 91 5 47 19 111 29 141 11 30 23 82 28 114 l8 58
3 -59 c2 -35 -5 -96 -18 -150z m-1005 174 c-27 -12 -35 -12 -35 0 0 6 12 10
28 9 24 0 25 -1 7 -9z m652 -77 c-2 -16 -4 -5 -4 22 0 28 2 40 4 28 2 -13 2
-35 0 -50z m-2367 -18 c-1 -5 -12 4 -25 20 -14 17 -25 35 -25 40 1 6 12 -3 25
-20 14 -16 25 -34 25 -40z m1790 20 c0 -5 -5 -3 -10 5 -5 8 -10 20 -10 25 0 6
5 3 10 -5 5 -8 10 -19 10 -25z m-1064 -4 c5 -5 24 -12 42 -16 24 -5 32 -3 30
6 -2 8 7 15 19 17 42 6 82 -49 271 -374 41 -71 120 -154 146 -154 19 0 22 13
40 133 8 53 19 103 23 110 4 6 10 62 14 122 l6 110 1 -98 c2 -106 16 -123 29
-34 l7 52 16 -85 c16 -79 61 -237 113 -390 22 -62 134 -259 149 -260 12 0 84
100 128 180 41 73 76 120 90 120 13 0 22 -62 30 -185 l7 -120 1 99 c1 55 5 96
9 92 4 -3 10 -61 14 -128 7 -112 11 -126 47 -202 40 -83 62 -150 43 -131 -8 9
-68 141 -85 189 -3 10 -9 17 -11 14 -10 -9 54 -173 135 -348 83 -177 98 -203
165 -275 l37 -40 -39 50 c-62 79 -82 110 -80 125 3 35 -18 123 -55 224 -21 60
-37 111 -35 113 5 4 48 -105 96 -245 21 -61 58 -144 82 -184 24 -40 44 -78 44
-84 0 -15 87 -124 98 -124 4 0 5 6 1 13 -4 6 12 -6 37 -28 41 -37 107 -72 453
-241 140 -68 306 -191 590 -439 50 -44 107 -93 126 -109 39 -31 26 -26 -35 14
-53 35 -143 85 -130 73 25 -24 319 -211 409 -260 56 -30 102 -56 103 -57 5 -4
-243 6 -296 13 -55 7 -61 6 -46 -6 34 -24 -23 -16 -69 11 -59 34 -143 59 -172
52 -19 -5 -61 11 -172 68 -160 80 -630 281 -639 272 -3 -3 7 -10 23 -16 16 -6
63 -26 104 -45 41 -18 104 -45 140 -58 135 -51 300 -135 220 -113 -61 18 -65
17 -30 -6 55 -36 15 -33 -101 8 -57 20 -153 53 -213 74 -60 21 -115 45 -121
54 -17 23 -20 21 -35 -25 l-14 -41 -18 24 -18 23 0 -22 c0 -38 -28 -27 -35 12
-3 19 -8 52 -11 72 -3 20 -12 53 -20 72 -13 34 -17 36 -59 37 -43 1 -45 0 -55
-35 -14 -52 -13 -64 8 -57 11 4 8 -2 -8 -15 l-25 -21 -6 138 c-3 77 -4 141 -2
143 2 2 20 -1 40 -7 20 -6 39 -9 42 -7 7 8 -66 35 -93 35 -30 0 -61 -38 -70
-85 -8 -40 -16 -43 -41 -15 -10 12 -25 18 -32 16 -7 -3 -15 -1 -18 4 -4 6 -17
10 -29 10 -45 0 -55 50 -19 91 12 14 12 17 -2 22 -10 4 -15 20 -15 48 0 32 4
42 19 46 33 8 32 30 0 30 -21 0 -26 -3 -17 -9 8 -6 -6 -7 -37 -3 -27 4 -56 12
-64 18 -26 21 -84 15 -106 -12 -36 -44 -44 -65 -45 -121 -1 -51 -2 -54 -16
-35 -8 11 -22 45 -31 75 -37 128 -180 380 -282 495 -152 173 -261 304 -315
380 -121 171 -219 323 -256 400 -61 126 -112 334 -54 220 14 -27 30 -54 36
-60 6 -5 1 9 -11 32 -38 75 -78 243 -91 377 -7 70 -16 142 -21 160 -5 17 -9
34 -9 38 0 11 14 10 26 -1z m-686 -55 c0 -5 -7 -3 -15 4 -8 7 -15 20 -15 28 0
13 3 12 15 -4 8 -10 15 -23 15 -28z m5813 -71 c29 -57 93 -180 142 -272 l90
-168 0 -165 c0 -187 -12 -240 -64 -275 -16 -10 -28 -22 -25 -26 2 -4 0 -11 -6
-14 -6 -4 -10 -3 -9 2 4 22 -2 34 -13 27 -7 -4 -5 2 5 13 9 11 17 25 17 31 0
6 9 16 20 22 23 12 27 40 6 40 -8 0 -19 -14 -25 -32 -12 -35 -39 -68 -54 -68
-6 0 -2 9 8 20 10 11 16 20 13 20 -3 0 -2 18 2 41 4 23 4 53 0 68 -7 22 -8 18
-9 -21 -1 -45 -27 -118 -42 -118 -19 0 -19 36 0 51 11 9 18 19 14 22 -6 7 -47
-40 -56 -65 -3 -10 -13 -18 -22 -18 -20 0 -19 4 10 50 14 22 25 48 25 57 0 10
-17 -12 -37 -48 -34 -62 -68 -98 -81 -85 -3 4 2 12 11 19 26 19 97 193 117
287 10 47 17 87 15 89 -2 1 -16 -37 -30 -85 -40 -132 -46 -141 -41 -54 l5 75
-18 -65 c-18 -67 -101 -246 -101 -219 0 8 16 54 35 102 26 64 35 100 34 139
l-1 53 -10 -53 c-24 -131 -34 37 -13 208 3 26 2 30 -4 15 -22 -51 -72 -237
-81 -304 -6 -40 -15 -81 -21 -90 -8 -12 -9 -7 -3 19 3 19 8 62 9 95 1 33 5 76
9 95 5 25 3 41 -9 55 l-16 20 9 -20 c21 -44 -50 -335 -101 -411 -34 -52 -33
-72 7 -204 35 -118 40 -175 26 -330 -17 -196 -42 -324 -79 -400 -17 -36 -28
-56 -25 -45 36 115 55 216 65 350 13 187 8 236 -8 70 -14 -141 -71 -376 -115
-472 -38 -83 -49 -69 -14 16 14 34 27 83 30 109 l6 47 -18 -60 c-28 -92 -94
-224 -143 -284 -37 -47 -199 -194 -205 -188 -2 1 45 52 104 113 136 140 158
182 238 464 45 155 57 177 50 90 l-5 -65 20 85 c16 64 21 123 22 240 2 167 -7
223 -51 320 -18 40 -26 78 -29 140 -6 109 13 448 29 522 l12 57 75 7 c50 4 89
15 118 30 56 32 71 30 82 -8 6 -22 9 -26 10 -12 1 11 -6 29 -14 40 -8 10 -15
22 -15 27 0 15 34 6 55 -13 l22 -21 12 61 c15 75 6 219 -20 302 -9 32 -13 58
-8 58 6 0 33 -47 62 -105z m-5179 -45 l7 -25 -15 25 c-9 14 -15 47 -14 75 l0
50 8 -50 c4 -28 10 -62 14 -75z m-577 73 c18 -21 36 -49 39 -63 3 -14 10 -38
15 -54 5 -15 7 -32 4 -36 -2 -4 6 -39 19 -79 13 -39 22 -71 20 -71 -6 0 -71
132 -79 160 -4 14 -23 56 -41 93 -30 60 -36 87 -17 87 3 0 21 -17 40 -37z
m113 17 c0 -15 -47 -29 -59 -17 -16 16 -14 25 7 29 21 5 52 -2 52 -12z m2167
-82 c-2 -18 -4 -6 -4 27 0 33 2 48 4 33 2 -15 2 -42 0 -60z m-40 20 c-3 -7 -5
-2 -5 12 0 14 2 19 5 13 2 -7 2 -19 0 -25z m-562 -238 c-20 -184 -27 -203
-105 -301 -47 -59 -69 -99 -34 -65 8 9 25 21 36 27 20 11 20 11 2 -21 -39 -66
-72 -61 -93 12 -7 24 -17 57 -23 73 -6 17 -15 54 -21 84 -10 48 -9 55 9 68 10
8 32 17 48 20 19 4 32 16 41 36 8 21 14 25 18 14 4 -10 14 -13 31 -10 14 3 32
0 40 -6 11 -10 15 -8 20 6 10 35 36 198 37 238 1 28 3 32 6 15 3 -14 -3 -99
-12 -190z m-338 153 c-3 -10 -5 -4 -5 12 0 17 2 24 5 18 2 -7 2 -21 0 -30z
m950 -140 c-2 -32 -3 -8 -3 52 0 61 1 87 3 58 2 -29 2 -78 0 -110z m-2137 32
c0 -5 -5 -3 -10 5 -5 8 -10 20 -10 25 0 6 5 3 10 -5 5 -8 10 -19 10 -25z
m1567 -42 c-3 -10 -5 -2 -5 17 0 19 2 27 5 18 2 -10 2 -26 0 -35z m50 15 c-3
-8 -6 -5 -6 6 -1 11 2 17 5 13 3 -3 4 -12 1 -19z m-71 -109 l-16 -34 6 35 c7
41 16 59 21 43 2 -6 -3 -26 -11 -44z m914 -19 c-13 -72 -48 -190 -57 -190 -11
0 4 85 32 173 14 49 29 86 31 84 3 -3 0 -33 -6 -67z m1914 35 c4 -10 -1 -15
-16 -15 -17 0 -18 2 -8 15 7 8 14 15 15 15 2 0 5 -7 9 -15z m-144 -19 c0 -8
-4 -17 -9 -21 -12 -7 -24 12 -16 25 9 15 25 12 25 -4z m1010 -1 c-19 -7 -60
-13 -90 -13 l-55 0 59 9 c32 5 61 11 64 14 3 3 17 5 31 4 24 0 23 -2 -9 -14z
m-90 -51 c0 -19 -11 -44 -20 -44 -5 0 -12 9 -15 20 -5 15 -15 20 -45 20 -21 0
-42 5 -45 11 -5 7 15 9 59 8 45 -1 66 -6 66 -15z m-1546 -30 c3 -8 2 -12 -4
-9 -6 3 -10 10 -10 16 0 14 7 11 14 -7z m311 -72 c-5 -14 -7 -14 -15 -2 -9 14
-4 54 9 75 8 14 14 -53 6 -73z m1025 46 c0 -18 9 -66 20 -107 21 -80 27 -137
10 -93 -14 34 -17 27 -10 -25 6 -44 79 -228 87 -219 2 2 -12 50 -32 106 -19
57 -33 105 -31 107 2 3 10 -13 16 -34 17 -50 67 -150 80 -158 5 -3 10 -17 10
-30 0 -13 4 -27 10 -30 9 -5 6 51 -5 108 -2 9 1 17 6 17 5 0 9 -5 9 -12 0 -6
3 -9 6 -6 7 7 -18 135 -52 267 -31 119 -31 143 -2 139 17 -2 25 -16 40 -68 18
-64 24 -129 33 -339 3 -82 7 -106 20 -113 8 -5 13 -14 9 -19 -6 -10 24 -110
36 -119 9 -7 39 -126 46 -187 4 -29 3 -101 -2 -160 l-8 -108 -7 75 c-4 41 -11
116 -16 165 -7 85 -8 77 -14 -120 -4 -115 -12 -223 -18 -240 -11 -30 -10 23 5
200 3 45 2 54 -5 38 -6 -13 -12 -23 -14 -23 -2 0 -1 63 1 140 3 100 1 140 -7
140 -7 0 -11 -21 -11 -56 0 -65 -19 -66 -21 -1 -2 81 -17 -2 -19 -103 -2 -154
-17 -150 -18 5 -1 77 -5 156 -10 175 l-10 35 -1 -47 c-1 -48 -21 -70 -21 -23
0 14 -4 25 -10 25 -5 0 -10 16 -10 35 0 19 -4 35 -8 35 -4 0 -6 -44 -4 -97 2
-54 0 -114 -6 -133 -8 -30 -10 -19 -16 75 -10 177 -25 297 -41 345 -8 25 -13
34 -10 20 31 -180 27 -462 -9 -497 -14 -15 -13 6 5 77 17 67 18 88 9 195 -33
369 -60 486 -144 609 -15 21 -25 40 -23 42 2 2 35 8 73 13 38 4 72 9 77 10 4
0 7 -14 7 -31z m-3280 -14 c0 -8 -4 -12 -10 -9 -5 3 -10 13 -10 21 0 8 5 12
10 9 6 -3 10 -13 10 -21z m1300 -19 c-7 -8 -16 -15 -21 -15 -15 0 -10 28 9 46
16 17 17 17 20 0 2 -9 -2 -23 -8 -31z m675 5 c14 -27 14 -30 0 -30 -8 0 -15 6
-15 14 0 8 -3 21 -6 30 -11 28 5 17 21 -14z m472 12 c-18 -20 -97 -67 -97 -58
0 8 93 75 104 76 5 0 2 -8 -7 -18z m157 -32 c22 -33 32 -40 59 -40 26 0 32 -4
33 -22 0 -13 4 -67 9 -120 7 -87 5 -109 -20 -215 -57 -247 -78 -320 -116 -410
-21 -50 -45 -116 -53 -145 -28 -107 -141 -349 -225 -480 -48 -76 -162 -185
-172 -165 -3 7 -12 68 -18 137 -7 69 -21 181 -31 250 -28 191 -33 261 -25 391
5 89 10 119 20 116 9 -4 14 22 18 101 8 149 80 470 105 465 6 -2 14 6 17 17 6
19 58 40 103 40 26 0 28 7 5 32 -15 17 -15 18 3 18 11 0 24 -4 30 -10 11 -11
80 6 105 27 22 19 85 28 93 14 4 -6 12 -11 19 -11 6 0 2 7 -9 15 -16 13 -17
16 -4 25 23 15 25 13 54 -30z m404 16 c-8 -8 -15 -10 -19 -4 -4 7 -9 6 -13 -1
-4 -6 -21 -10 -39 -10 -18 0 -39 -1 -47 -3 -8 -2 -16 2 -18 7 -2 9 25 13 131
23 15 2 16 0 5 -12z m-1338 -10 c0 -9 -30 -14 -35 -6 -4 6 3 10 14 10 12 0 21
-2 21 -4z m-60 -21 c-14 -16 -40 -20 -40 -6 0 10 17 19 39 20 11 1 11 -2 1
-14z m625 -15 c3 -6 -3 -10 -13 -10 -21 0 -46 23 -36 33 8 7 40 -8 49 -23z
m615 18 c0 -4 37 -8 83 -9 61 0 76 -3 59 -10 -50 -20 -129 -22 -172 -5 -23 9
-72 17 -113 17 -55 1 -65 3 -42 9 39 10 185 9 185 -2z m-1120 -22 c0 -8 -5
-18 -11 -22 -14 -8 -33 11 -25 25 10 16 36 13 36 -3z m1330 4 c22 -12 40 -67
99 -305 64 -261 64 -257 57 -433 -7 -212 -28 -286 -106 -372 -32 -36 -31 -26
3 23 10 16 17 30 15 33 -6 6 -58 -69 -58 -83 0 -12 -59 -43 -81 -43 -8 0 -4 7
8 15 25 18 44 76 41 126 -3 41 21 169 32 169 8 0 34 259 27 266 -3 3 -8 -9
-12 -26 -5 -21 -18 -38 -36 -49 -16 -9 -31 -23 -34 -33 -3 -9 -12 -19 -19 -21
-8 -3 -17 -19 -21 -36 -3 -16 -17 -41 -29 -54 -22 -23 -27 -25 -65 -15 -22 6
-41 14 -41 19 0 15 -39 10 -80 -11 -40 -21 -114 -27 -125 -11 -3 5 13 51 36
103 112 252 138 350 143 541 4 157 9 167 84 168 33 0 74 8 97 19 49 23 43 22
65 10z m-1412 -18 c2 -8 -8 -12 -30 -12 -31 1 -32 1 -13 15 21 17 37 15 43 -3z
m-946 -27 c3 -14 1 -25 -3 -25 -5 0 -9 6 -9 14 0 8 -3 22 -7 32 -4 11 -3 15 4
11 6 -4 13 -18 15 -32z m1478 25 c0 -5 -11 -10 -25 -10 -14 0 -25 5 -25 10 0
6 11 10 25 10 14 0 25 -4 25 -10z m100 0 c-8 -5 -19 -10 -25 -10 -5 0 -3 5 5
10 8 5 20 10 25 10 6 0 3 -5 -5 -10z m-163 -16 c-3 -3 -12 -4 -19 -1 -8 3 -5
6 6 6 11 1 17 -2 13 -5z m-1668 -49 c0 -5 -4 -3 -9 5 -5 8 -9 22 -9 30 0 16
17 -16 18 -35z m593 -5 c14 -23 34 -26 42 -7 3 6 4 -3 1 -20 -3 -18 -7 -48
-10 -65 l-4 -33 10 35 c21 68 31 89 45 94 9 3 16 -4 20 -19 7 -29 24 -24 25 8
1 18 3 16 10 -8 6 -16 8 -57 5 -90 l-5 -60 14 45 c8 25 15 65 15 90 1 40 2 43
14 27 9 -12 16 -14 21 -8 12 20 24 11 27 -21 l3 -33 18 33 c16 29 22 33 44 27
34 -8 73 -35 73 -49 -1 -6 -14 -60 -29 -121 l-29 -110 -36 -3 c-32 -3 -36 0
-37 20 -1 17 -3 18 -6 6 -3 -12 -14 -18 -34 -18 -21 0 -29 5 -29 18 -1 16 -1
16 -11 0 -11 -20 -44 -24 -54 -8 -3 6 -22 10 -41 10 l-34 0 -1 58 c-1 31 -4
44 -6 27 -14 -110 -28 -97 -42 38 -14 138 -14 157 -1 157 5 0 15 -9 22 -20z
m-98 -5 c3 -8 11 -12 19 -9 21 8 47 -86 47 -170 -1 -62 -2 -69 -14 -53 -10 12
-15 14 -18 6 -9 -27 -28 5 -28 45 0 24 -7 57 -15 72 -16 31 -21 124 -6 124 5
0 11 -7 15 -15z m-180 -20 c20 -13 36 -20 36 -14 0 6 5 7 10 4 6 -4 17 -1 25
5 11 9 15 9 15 1 0 -14 27 -14 32 0 7 20 58 -129 58 -169 0 -36 -2 -40 -22
-35 -30 6 -71 26 -79 37 -4 5 -24 10 -44 12 -46 4 -85 28 -85 52 0 10 -6 24
-12 31 -7 8 -1 6 14 -4 25 -16 28 -16 34 -1 3 9 10 16 16 16 5 0 6 -6 2 -12
-4 -7 -3 -10 1 -5 12 10 13 57 1 64 -5 4 -6 0 -1 -8 4 -8 -6 -1 -23 15 -49 45
-37 51 22 11z m-227 -85 c50 -56 88 -79 178 -105 34 -11 52 -20 42 -22 -26 -6
-115 25 -170 60 -55 34 -119 120 -109 146 6 13 7 12 10 -6 2 -12 24 -45 49
-73z m1394 53 c9 -3 20 0 23 6 4 6 18 11 32 11 29 0 30 -13 9 -123 -8 -43 -15
-95 -14 -115 0 -21 9 10 19 70 21 117 44 183 60 173 6 -3 10 -48 10 -102 0
-53 3 -93 6 -90 4 4 6 49 6 101 -1 74 2 95 13 100 12 4 15 -5 15 -49 0 -54
-22 -172 -40 -210 -5 -11 -14 -83 -21 -160 -26 -316 -23 -295 -32 -250 -4 22
-3 74 2 115 15 109 14 210 -1 210 -10 0 -12 -19 -10 -70 3 -52 0 -74 -11 -85
-14 -13 -15 -3 -15 91 -1 58 -3 109 -6 112 -3 3 -6 -6 -6 -20 0 -18 -7 -27
-22 -32 -28 -7 -47 11 -59 55 l-9 34 4 -36 c2 -19 19 -58 36 -85 18 -27 29
-40 25 -29 -11 30 -11 40 0 42 6 2 11 -22 11 -55 1 -31 7 -101 13 -154 6 -54
11 -103 10 -110 -1 -27 -17 31 -24 86 -7 52 -23 85 -27 54 0 -7 -2 -17 -3 -23
-2 -5 -3 -21 -4 -34 -2 -41 -11 -17 -31 79 -10 51 -27 101 -36 111 -23 26 -27
19 -10 -17 20 -40 33 -174 17 -174 -8 0 -10 -8 -6 -22 5 -18 4 -20 -4 -8 -6 8
-8 23 -5 34 4 11 2 16 -4 12 -13 -8 -51 133 -58 214 -11 132 -16 281 -10 303
3 13 15 35 26 49 20 26 20 26 67 11 27 -8 55 -17 64 -20z m-376 12 c48 0 50
-1 46 -25 -1 -14 -9 -36 -16 -50 -24 -47 -75 -264 -70 -300 l5 -35 -19 31
c-25 41 -68 74 -97 74 -23 0 -24 3 -24 69 0 77 26 176 58 216 19 24 21 25 31
8 9 -16 10 -16 11 5 0 16 4 21 13 15 6 -4 35 -8 62 -8z m-880 -15 c10 -11 16
-20 13 -20 -3 0 -13 9 -23 20 -10 11 -16 20 -13 20 3 0 13 -9 23 -20z m975 1
c0 -14 5 -18 20 -14 11 3 20 12 20 19 0 21 40 17 41 -3 0 -16 1 -16 8 1 4 11
10 15 13 10 9 -15 -4 -304 -13 -298 -5 3 -10 15 -10 27 -1 17 -2 18 -6 5 -2
-10 -8 -18 -13 -18 -15 0 -20 31 -22 133 l-2 102 -6 -120 c-4 -66 -8 -126 -9
-134 0 -7 -7 -11 -15 -8 -11 4 -15 -7 -18 -49 -3 -47 0 -55 17 -60 24 -8 65
-44 65 -57 0 -6 -10 -1 -22 10 -27 25 -68 39 -68 24 0 -6 11 -13 25 -17 14 -3
25 -11 25 -16 0 -6 -7 -7 -16 -4 -9 3 -24 6 -35 6 -18 0 -19 9 -20 143 -2 101
-4 126 -9 87 -6 -50 -45 -203 -57 -223 -3 -5 -9 -5 -14 0 -5 5 0 27 12 52 12
25 18 53 15 65 -6 25 18 203 35 254 6 17 15 32 20 32 5 0 9 16 9 35 0 24 5 35
15 35 8 0 15 -9 15 -19z m-3165 -128 c-3 -18 -11 -33 -17 -33 -5 0 -7 8 -4 17
4 9 10 38 14 63 6 38 7 40 10 16 2 -16 1 -44 -3 -63z m4244 -75 c-4 -14 -5
-29 -2 -31 2 -3 0 -13 -5 -24 -6 -10 -15 -29 -21 -43 -10 -22 -11 -21 -6 15
14 98 28 150 35 130 4 -11 4 -32 -1 -47z m1128 10 c-3 -8 -6 -5 -6 6 -1 11 2
17 5 13 3 -3 4 -12 1 -19z m-3044 5 c-7 -2 -19 -2 -25 0 -7 3 -2 5 12 5 14 0
19 -2 13 -5z m166 -19 c8 -7 -84 -2 -114 6 -18 5 -2 6 40 3 39 -3 72 -7 74 -9z
m3021 2 c0 -2 -28 -14 -62 -25 -36 -12 -57 -16 -50 -9 21 22 112 49 112 34z
m-3811 -111 c0 -5 -11 10 -24 35 -13 25 -24 50 -24 55 0 6 11 -10 24 -35 13
-25 24 -49 24 -55z m1001 74 c18 -12 -44 -1 -75 12 -14 7 -7 7 20 3 22 -3 47
-10 55 -15z m95 -19 c14 -7 8 -8 -20 -3 -22 3 -42 7 -44 9 -9 8 45 2 64 -6z
m62 -16 c-3 -3 -12 -4 -19 -1 -8 3 -5 6 6 6 11 1 17 -2 13 -5z m2641 -51 c-26
-50 -31 -71 -34 -153 -2 -52 1 -117 7 -144 10 -43 8 -60 -16 -152 -15 -57 -30
-102 -34 -100 -3 2 -7 -15 -8 -37 -2 -61 -100 -249 -169 -325 -30 -34 -91 -88
-134 -122 l-80 -60 30 62 c60 129 103 235 121 300 10 37 29 102 42 145 35 111
43 252 22 390 -16 113 -11 163 17 163 9 0 8 3 -2 10 -11 7 -7 10 18 10 32 0
32 0 26 -39 -4 -24 1 -71 11 -118 11 -49 16 -100 12 -138 -4 -55 -38 -184 -74
-280 -8 -22 -10 -35 -4 -30 22 22 83 206 96 290 14 94 7 223 -16 282 -5 15 -7
29 -2 31 18 7 188 70 194 71 4 0 -7 -25 -23 -56z m-3224 -147 c27 -47 69 -86
92 -86 8 0 14 -4 14 -10 0 -21 -31 -8 -66 28 -49 51 -85 130 -90 199 l-4 58
14 -72 c8 -40 26 -93 40 -117z m979 156 c3 7 6 -1 6 -19 1 -38 -20 -36 -38 3
-17 38 -13 52 8 26 13 -15 21 -18 24 -10z m-283 -22 c7 -14 5 -19 -9 -23 -14
-3 -17 0 -14 14 3 11 0 19 -6 19 -6 0 -11 -5 -11 -12 0 -6 -2 -9 -5 -6 -3 3
-3 12 1 21 7 19 31 12 44 -13z m1227 -12 c-3 -8 -6 -5 -6 6 -1 11 2 17 5 13 3
-3 4 -12 1 -19z m-4251 -60 c16 -30 19 -68 6 -68 -16 0 -40 35 -44 65 -3 17
-9 39 -13 50 -8 20 -8 20 14 0 13 -11 29 -32 37 -47z m3070 -15 c-3 -4 -6 -1
-6 5 0 7 -9 12 -20 12 -22 0 -23 1 -14 24 5 13 10 12 26 -10 11 -14 18 -28 14
-31z m-363 3 c8 -24 11 -49 7 -56 -9 -14 -14 0 -26 63 -9 50 1 47 19 -7z
m-1993 -115 c12 -29 19 -55 17 -57 -4 -5 -97 189 -97 202 0 17 60 -91 80 -145z
m2137 104 c-27 -24 -78 -59 -113 -76 -76 -38 -84 -34 -84 46 1 40 3 46 11 32
6 -11 11 -34 12 -53 1 -19 2 -34 4 -34 14 0 127 65 163 94 62 49 65 45 7 -9z
m-605 -50 l22 -30 -25 22 c-13 12 -32 37 -42 55 l-19 33 21 -25 c12 -14 31
-38 43 -55z m252 4 c6 -61 5 -67 -14 -72 -27 -7 -78 7 -62 17 7 4 13 32 13 64
l2 57 10 -62 c6 -42 14 -63 23 -63 11 0 14 17 14 67 0 82 5 79 14 -8z m-2579
21 c3 -5 -3 -10 -15 -10 -12 0 -18 5 -15 10 3 6 10 10 15 10 5 0 12 -4 15 -10z
m2688 -72 c-10 -18 -20 -6 -15 19 5 24 6 25 12 8 4 -11 6 -23 3 -27z m-2058
-40 c47 -77 53 -90 26 -58 -22 27 -75 120 -68 120 2 0 21 -28 42 -62z m2005
43 c0 -5 -7 -11 -14 -14 -10 -4 -13 -1 -9 9 6 15 23 19 23 5z m-2820 -115 c1
-50 394 -385 598 -509 98 -59 307 -148 522 -221 107 -37 218 -76 245 -88 74
-30 277 -123 380 -173 81 -39 177 -81 229 -99 10 -4 17 -9 14 -11 -7 -7 -269
85 -313 110 -105 61 -322 150 -540 223 -365 122 -479 175 -741 348 -174 116
-233 169 -400 359 l-61 70 20 28 21 27 13 -22 c7 -13 12 -31 13 -42z m1245
-16 c21 -22 34 -40 29 -40 -6 0 -25 18 -43 40 -17 22 -30 40 -29 40 2 0 22
-18 43 -40z m1495 10 c0 -5 -5 -10 -11 -10 -5 0 -7 5 -4 10 3 6 8 10 11 10 2
0 4 -4 4 -10z m255 -294 c25 -63 6 -52 -22 13 -18 42 -43 183 -42 236 1 25 8
-4 20 -74 10 -62 30 -141 44 -175z m34 240 c5 -22 6 -35 2 -30 -9 9 -27 83
-18 74 3 -3 10 -23 16 -44z m-52 -8 c-3 -7 -5 -2 -5 12 0 14 2 19 5 13 2 -7 2
-19 0 -25z m-120 0 c-3 -8 -6 -5 -6 6 -1 11 2 17 5 13 3 -3 4 -12 1 -19z
m-1609 -90 c35 -72 65 -153 50 -138 -10 10 -107 230 -99 226 4 -3 26 -42 49
-88z m1379 86 c-3 -3 -12 -4 -19 -1 -8 3 -5 6 6 6 11 1 17 -2 13 -5z m-56 -55
c3 -19 9 -45 14 -59 4 -14 4 -21 -1 -17 -15 14 -43 118 -31 114 7 -2 15 -19
18 -38z m318 -44 l0 -20 -8 20 c-5 11 -11 36 -15 55 l-6 35 14 -35 c8 -19 15
-44 15 -55z m128 -90 c-3 -23 -26 70 -32 135 -3 33 1 23 16 -35 11 -44 18 -89
16 -100z m822 105 c0 -9 -4 -8 -9 5 -5 11 -9 27 -9 35 0 9 4 8 9 -5 5 -11 9
-27 9 -35z m1466 -55 l-14 -80 4 65 c4 61 13 105 21 98 2 -2 -3 -40 -11 -83z
m-161 4 c-6 -65 -52 -244 -53 -209 -1 8 6 37 14 64 8 28 18 87 22 133 3 46 10
83 15 83 4 0 5 -32 2 -71z m403 49 c-3 -8 -6 -5 -6 6 -1 11 2 17 5 13 3 -3 4
-12 1 -19z m-377 -94 c-17 -80 -21 -62 -7 31 7 45 13 68 15 52 2 -15 -2 -52
-8 -83z m26 -81 c-59 -209 -78 -263 -92 -263 -3 0 -2 5 1 10 4 6 15 39 25 73
10 34 30 102 44 151 15 48 30 116 34 150 l7 61 3 -47 c2 -28 -7 -82 -22 -135z
m-1981 -63 c40 -58 87 -131 105 -163 33 -59 55 -74 26 -18 -9 16 -16 35 -16
42 0 16 28 -23 78 -108 50 -84 64 -96 26 -22 -14 28 -23 58 -19 66 3 11 21
-15 50 -72 25 -49 60 -107 78 -129 19 -23 78 -102 131 -176 54 -74 112 -150
130 -169 49 -53 168 -124 124 -73 -10 10 -13 24 -8 36 6 17 8 15 18 -14 7 -18
14 -31 17 -29 8 9 -23 244 -40 297 -9 29 -14 59 -12 65 2 7 15 -21 28 -61 13
-41 34 -84 47 -97 33 -33 84 -55 113 -49 20 5 18 2 -10 -16 l-34 -22 -21 24
c-12 13 -34 35 -50 48 l-29 25 7 -59 c7 -62 23 -96 36 -76 4 6 13 12 21 14 8
1 24 7 36 14 26 15 36 15 28 2 -4 -6 10 -10 34 -10 23 0 41 5 41 10 0 6 5 10
10 10 6 0 10 -17 11 -37 0 -35 1 -36 10 -14 5 13 12 57 16 97 6 69 23 95 23
36 1 -41 22 -73 40 -62 8 5 24 10 36 10 44 0 82 77 100 203 3 26 10 47 15 47
14 0 11 -75 -7 -174 -8 -48 -13 -90 -11 -92 7 -7 75 51 113 97 97 115 99 214
9 522 -8 26 -12 47 -9 47 9 0 55 -116 79 -200 26 -87 84 -230 94 -230 13 1 83
123 136 235 54 117 134 259 141 252 2 -2 -15 -59 -37 -128 -28 -87 -64 -169
-119 -270 -90 -164 -104 -187 -90 -146 5 15 8 27 5 27 -2 0 -23 -28 -46 -61
-75 -111 -209 -234 -278 -254 -21 -6 -20 -4 9 22 29 26 16 21 -86 -29 -90 -44
-142 -63 -208 -75 -70 -13 -90 -20 -94 -35 -2 -10 -13 -18 -26 -18 -13 0 -17
3 -9 8 8 5 8 12 -3 26 -13 19 -20 11 -15 -16 2 -12 -2 -11 -90 33 -133 68
-347 238 -482 382 -27 29 -45 43 -41 32 11 -33 -100 135 -157 236 -75 135
-145 297 -153 354 l-7 50 29 -45 c16 -25 41 -58 56 -73 15 -16 34 -40 43 -53
9 -14 18 -23 20 -20 3 2 -7 21 -21 43 -22 33 -86 192 -86 211 0 4 16 -22 36
-58 20 -36 69 -112 109 -170z m-318 163 c-3 -10 -5 -4 -5 12 0 17 2 24 5 18 2
-7 2 -21 0 -30z m942 -3 c0 -10 -3 -8 -9 5 -12 27 -12 43 0 25 5 -8 9 -22 9
-30z m-1212 -22 c-3 -8 -6 -5 -6 6 -1 11 2 17 5 13 3 -3 4 -12 1 -19z m42
-150 c6 -35 5 -48 -3 -45 -9 3 -35 127 -34 167 0 22 26 -65 37 -122z m281 -28
c17 -63 40 -137 51 -165 20 -50 20 -50 0 -30 -17 17 -69 192 -94 320 -13 61
12 -9 43 -125z m2329 -56 c-29 -130 -72 -258 -89 -269 -4 -2 5 39 21 93 15 53
42 160 60 237 23 96 35 130 37 109 2 -17 -11 -94 -29 -170z m-1601 -144 c11
-52 34 -132 51 -178 16 -46 28 -89 25 -96 -6 -15 19 -75 52 -127 36 -57 29
-61 -10 -6 -43 61 -78 147 -105 262 -32 134 -61 320 -60 378 1 43 3 36 14 -43
7 -52 22 -138 33 -190z m1533 75 c-10 -39 -11 -38 -6 15 3 30 6 80 7 110 2 51
2 50 5 -15 2 -38 -1 -88 -6 -110z m-97 71 c-3 -15 -8 -25 -11 -23 -2 3 -1 17
3 31 3 15 8 25 11 23 2 -3 1 -17 -3 -31z m-2209 -54 c-9 -9 -25 19 -24 43 0
16 2 15 15 -8 9 -16 13 -32 9 -35z m-1068 -16 c14 -27 13 -33 -12 -92 -15 -34
-33 -100 -40 -146 -12 -77 -13 -79 -14 -32 0 28 4 75 9 105 7 35 7 56 0 63
-11 11 -14 124 -4 151 6 14 8 14 26 -2 11 -10 27 -31 35 -47z m3339 -147 c-18
-68 -49 -125 -102 -184 l-35 -40 40 63 c69 109 84 148 88 231 6 110 17 142 21
58 2 -39 -4 -94 -12 -128z m-109 79 c-3 -8 -6 -5 -6 6 -1 11 2 17 5 13 3 -3 4
-12 1 -19z m-37 -115 c-18 -35 -34 -62 -37 -60 -2 3 9 31 26 62 17 32 32 67
32 79 1 18 2 18 6 3 3 -11 -10 -48 -27 -84z m-2890 52 c0 -8 -4 -24 -9 -37 -5
-13 -19 -67 -31 -121 -13 -53 -25 -95 -28 -93 -7 7 17 146 36 209 16 54 32 75
32 42z m2813 -107 c-22 -35 -52 -83 -67 -108 -14 -25 -26 -41 -26 -37 0 25
118 222 128 212 3 -2 -13 -33 -35 -67z m-2992 25 c1 -17 3 -21 6 -10 2 9 9 17
14 17 15 0 -11 -88 -53 -182 -21 -46 -46 -67 -35 -30 2 9 6 24 8 32 2 8 12 21
23 29 19 14 19 14 0 134 -6 33 -4 37 15 37 16 0 21 -7 22 -27z m2948 -160
c-35 -58 -80 -124 -100 -146 -39 -45 -206 -172 -279 -213 -25 -14 -34 -17 -20
-7 113 83 255 201 288 239 22 26 68 93 103 150 35 57 66 98 68 93 2 -6 -25
-58 -60 -116z m-1085 30 c20 -47 35 -91 33 -96 -2 -8 -77 164 -77 178 0 17 12
-5 44 -82z m-1967 -55 c-3 -7 -5 -2 -5 12 0 14 2 19 5 13 2 -7 2 -19 0 -25z
m3065 -50 c-20 -33 -78 -93 -71 -73 6 16 84 113 88 109 2 -2 -6 -18 -17 -36z
m-1137 -75 c21 -27 28 -39 16 -28 -23 19 -66 75 -59 75 2 0 21 -21 43 -47z
m385 -3 c0 -5 -2 -10 -4 -10 -3 0 -8 5 -11 10 -3 6 -1 10 4 10 6 0 11 -4 11
-10z m-525 -85 c19 -15 18 -15 -10 -1 -16 8 -39 22 -50 31 -19 15 -18 15 10 1
17 -8 39 -22 50 -31z m-1393 11 c56 -14 146 -29 198 -35 123 -14 300 -38 370
-50 277 -49 346 -63 419 -86 96 -29 158 -31 245 -9 70 18 234 14 351 -8 l70
-14 -95 -7 c-52 -4 -123 -12 -158 -18 -72 -11 -355 10 -477 36 -38 9 -80 17
-93 20 -13 2 -31 7 -40 9 -9 3 -39 8 -67 11 -78 7 -146 26 -139 37 5 7 1 7
-11 1 -10 -6 -34 -7 -59 -2 -22 5 -138 24 -256 44 -189 31 -417 80 -429 91
-13 12 81 1 171 -20z m853 -32 c20 -8 35 -18 32 -21 -8 -8 -77 17 -77 28 0 12
1 12 45 -7z m206 -66 c63 -25 81 -38 54 -38 -22 1 -137 59 -119 60 6 0 36 -10
65 -22z"/>
<path d="M3290 8735 c-93 -21 -157 -45 -395 -150 -115 -51 -221 -96 -235 -100
-50 -15 -407 -193 -463 -231 -74 -51 -272 -273 -328 -367 -23 -40 -56 -90 -73
-112 -17 -22 -23 -34 -14 -27 10 8 49 61 88 118 39 57 75 102 80 99 9 -5 100
96 100 111 0 5 -7 0 -15 -10 -8 -11 -15 -15 -15 -9 0 16 18 26 51 28 l28 3
-35 -70 c-38 -76 -40 -102 -3 -42 12 21 25 32 27 25 2 -7 -4 -22 -14 -33 -11
-12 -13 -18 -6 -14 18 11 15 4 -23 -59 -19 -32 -42 -81 -51 -109 -9 -28 -28
-75 -41 -105 -13 -30 -20 -57 -15 -60 5 -3 12 -13 15 -21 4 -10 6 -9 6 6 2 43
62 220 91 266 16 26 37 67 48 90 20 45 71 112 79 104 3 -2 -8 -24 -25 -48 -84
-122 -163 -332 -161 -427 1 -53 0 -55 39 108 29 121 66 203 147 324 69 103
110 138 46 40 -80 -125 -123 -213 -157 -318 -20 -60 -36 -112 -36 -115 2 -16
37 66 62 144 16 50 41 111 56 136 15 25 34 58 42 73 8 16 22 33 31 38 12 6 5
-14 -22 -67 -21 -41 -42 -93 -45 -114 -4 -22 -9 -38 -13 -36 -3 3 -5 -12 -3
-32 2 -21 -3 -74 -11 -119 -8 -45 -12 -93 -9 -108 l5 -26 25 23 c36 34 80 132
87 197 3 31 9 72 12 91 l6 35 9 -50 c4 -27 5 -70 2 -95 -3 -25 -2 -40 3 -35 4
6 17 10 28 10 17 0 21 9 26 50 3 28 7 39 8 25 2 -23 3 -23 17 10 9 19 19 62
23 95 l8 60 2 -79 c1 -103 23 -90 30 17 4 56 6 65 12 42 3 -16 7 -52 8 -79 0
-27 4 -46 8 -43 6 7 7 20 12 120 2 46 3 49 12 27 6 -14 9 -48 7 -77 -2 -43 -1
-50 10 -39 7 7 13 38 14 72 l1 59 16 -69 c14 -62 18 -67 30 -52 12 14 12 26 3
67 -7 28 -12 65 -11 82 1 31 1 31 9 7 5 -14 16 -51 26 -82 9 -32 20 -58 25
-58 4 0 3 15 -2 32 -5 18 -9 49 -8 68 1 30 3 26 14 -23 14 -67 17 -71 43 -63
18 6 20 14 17 84 -4 77 1 72 21 -25 2 -13 9 -23 14 -23 6 0 8 26 5 63 -5 61 1
53 19 -25 13 -59 25 -24 21 64 -3 50 -3 89 0 86 2 -2 10 -40 17 -84 6 -43 14
-71 16 -61 4 19 38 23 44 5 4 -10 10 -10 31 -1 26 12 27 16 28 90 1 57 3 70 9
48 4 -16 8 -50 9 -74 1 -40 3 -43 24 -37 12 4 34 9 50 12 15 4 27 9 27 13 0 4
-20 82 -45 173 -25 92 -44 179 -44 195 1 21 3 23 6 8 6 -22 98 -311 108 -336
8 -20 49 -18 136 9 75 23 184 46 289 62 41 7 84 16 96 22 11 5 24 8 30 7 5 -2
35 0 68 4 40 5 63 4 72 -4 21 -17 23 -10 14 46 -11 65 -11 193 0 150 4 -16 8
-63 9 -103 1 -54 4 -73 14 -70 6 3 15 22 18 44 l6 39 2 -47 c1 -35 5 -48 16
-48 12 0 15 14 16 63 2 112 17 131 18 24 1 -74 4 -98 14 -95 8 3 14 35 18 89
l5 84 2 -82 c2 -66 5 -83 17 -83 11 0 15 12 15 51 0 34 4 48 11 43 7 -4 9 -23
5 -51 -5 -39 -4 -44 12 -41 14 3 18 18 23 88 l5 85 2 -87 c2 -80 4 -88 22 -88
17 0 20 8 23 88 l3 87 2 -87 2 -88 33 -1 c148 -7 207 -5 202 9 -3 8 -8 26 -11
40 -5 22 -1 20 18 -12 26 -45 69 -63 105 -45 36 19 267 6 337 -20 33 -11 61
-19 63 -17 10 10 -195 150 -352 239 -135 77 -533 274 -640 317 -190 77 -345
102 -465 75z m338 -515 c0 -25 -6 5 -14 65 -7 61 -12 130 -12 155 0 25 6 -4
14 -65 7 -60 12 -130 12 -155z m-351 -52 c-2 -35 -3 -9 -3 57 0 66 1 94 3 63
2 -32 2 -86 0 -120z m-927 148 c0 -2 -33 -22 -73 -44 -40 -22 -97 -62 -127
-88 l-55 -48 44 46 c24 25 80 67 125 92 84 48 86 49 86 42z m967 -153 c-2 -27
-3 -5 -3 47 0 52 1 74 3 48 2 -27 2 -69 0 -95z m200 115 c-3 -8 -6 -5 -6 6 -1
11 2 17 5 13 3 -3 4 -12 1 -19z m-117 -85 c0 -61 -3 -84 -11 -76 -9 9 -3 163
7 163 2 0 4 -39 4 -87z m37 -20 c-2 -21 -4 -4 -4 37 0 41 2 58 4 38 2 -21 2
-55 0 -75z m650 30 c-3 -10 -5 -2 -5 17 0 19 2 27 5 18 2 -10 2 -26 0 -35z
m-1666 10 c-13 -43 -44 -103 -53 -103 -5 0 -2 14 7 30 9 17 13 30 10 30 -11 0
-78 -155 -91 -210 -20 -84 -9 -71 21 24 14 46 34 91 42 98 15 12 15 11 5 -9
-22 -41 -62 -228 -63 -293 -1 -85 -14 -46 -23 72 -7 78 -3 114 21 186 3 9 -4
4 -15 -11 -11 -16 -23 -52 -26 -80 -4 -29 -14 -77 -23 -107 -9 -30 -16 -66
-15 -80 2 -27 -25 -141 -36 -152 -4 -4 -2 41 5 100 12 92 23 144 49 229 3 10
-2 6 -10 -8 -20 -35 -35 -102 -51 -229 -13 -106 -34 -181 -42 -149 -6 23 24
229 43 303 16 62 174 332 216 369 29 24 38 21 29 -10z m816 -75 c-2 -13 -4 -5
-4 17 -1 22 1 32 4 23 2 -10 2 -28 0 -40z m-1248 -128 c-18 -22 -35 -38 -37
-35 -5 5 57 75 65 75 2 0 -11 -18 -28 -40z m845 -12 c5 -32 4 -48 -3 -48 -7 0
-11 22 -11 52 0 62 5 60 14 -4z m-198 -69 c4 -72 -8 -48 -19 36 -5 35 -4 46 4
38 6 -6 13 -39 15 -74z m-99 -81 c-3 -8 -6 -5 -6 6 -1 11 2 17 5 13 3 -3 4
-12 1 -19z"/>
<path d="M3640 8722 c47 -16 103 -37 125 -47 190 -86 394 -182 458 -216 43
-22 80 -39 83 -37 9 10 -184 107 -463 231 -62 28 -88 44 -80 50 8 6 4 7 -10 4
-13 -3 -23 -2 -23 3 0 9 -62 25 -130 34 -35 5 -27 0 40 -22z"/>
<path d="M2850 8655 c-25 -13 -41 -24 -37 -25 11 0 87 39 87 45 0 7 0 7 -50
-20z"/>
<path d="M1840 8066 c-30 -24 -71 -64 -90 -88 -60 -74 -64 -85 -10 -28 28 30
77 78 108 107 70 64 66 68 -8 9z"/>
<path d="M1860 7757 c-13 -23 -41 -71 -62 -106 -21 -35 -37 -66 -35 -68 8 -7
55 63 91 136 40 79 45 108 6 38z"/>
<path d="M2121 7775 c-1 -11 -13 -45 -27 -74 -14 -30 -27 -75 -30 -100 -3 -39
2 -30 31 54 20 55 34 109 32 120 l-4 20 -2 -20z"/>
<path d="M1945 7749 c-4 -6 -5 -12 -2 -15 2 -3 7 2 10 11 7 17 1 20 -8 4z"/>
<path d="M1921 7693 c-10 -26 -10 -27 4 -9 8 11 15 23 15 28 0 15 -7 8 -19
-19z"/>
<path d="M5963 7673 c15 -2 37 -2 50 0 12 2 0 4 -28 4 -27 0 -38 -2 -22 -4z"/>
<path d="M6061 7666 c2 -2 63 -5 134 -8 79 -3 110 -2 80 3 -51 7 -222 12 -214
5z"/>
<path d="M7158 7623 c-16 -4 -16 -6 -3 -19 8 -9 15 -26 15 -40 0 -30 16 -31
24 -1 15 58 7 72 -36 60z"/>
<path d="M7380 7611 c10 -7 1 -11 -30 -14 -25 -2 16 -4 91 -5 75 -1 151 -5
168 -8 24 -5 31 -3 31 8 0 19 -60 28 -184 28 -59 0 -86 -4 -76 -9z"/>
<path d="M1589 7563 c-13 -16 -12 -17 4 -4 9 7 17 15 17 17 0 8 -8 3 -21 -13z"/>
<path d="M7335 7500 c-49 -4 10 -6 155 -7 155 0 209 3 160 7 -90 9 -206 9
-315 0z"/>
<path d="M6942 7483 c48 -2 129 -2 180 0 51 1 12 3 -87 3 -99 0 -141 -2 -93
-3z"/>
<path d="M7753 7483 c9 -2 23 -2 30 0 6 3 -1 5 -18 5 -16 0 -22 -2 -12 -5z"/>
<path d="M4853 7323 c-32 -38 -77 -90 -99 -118 -21 -27 -45 -56 -52 -63 -30
-33 -76 -109 -99 -165 -26 -64 -54 -212 -74 -400 -10 -88 -15 -107 -27 -102
-12 5 -13 -27 -7 -237 3 -134 11 -281 16 -328 6 -47 13 -111 16 -143 l6 -57
-44 19 c-29 13 -92 24 -179 33 -179 17 -314 16 -497 -4 -7 -1 -15 -8 -18 -17
-3 -9 -32 -36 -65 -61 -71 -54 -153 -151 -169 -202 -31 -96 43 -237 198 -371
92 -80 166 -116 228 -111 37 3 44 2 28 -6 -15 -8 -8 -9 32 -7 36 3 81 19 155
55 89 43 114 61 173 124 108 114 188 268 219 420 20 98 20 166 0 331 -28 221
-4 767 41 964 36 154 110 295 234 441 33 39 57 72 52 72 -5 0 -36 -30 -68 -67z
m-628 -1693 c3 -6 -1 -7 -9 -4 -18 7 -21 14 -7 14 6 0 13 -4 16 -10z m-22
-110 c-7 -7 -83 77 -83 92 0 7 20 -9 44 -37 24 -27 42 -52 39 -55z m230 -140
c-17 -29 -64 -87 -53 -65 12 22 63 95 67 95 2 0 -4 -14 -14 -30z m-334 -105
c1 -29 -18 27 -23 70 l-6 50 15 -55 c8 -30 14 -59 14 -65z m121 -81 c-86 -88
-193 -144 -276 -144 -59 0 -134 26 -149 50 -4 6 8 4 26 -6 23 -11 59 -17 109
-18 90 -1 126 14 244 104 44 33 82 60 85 60 3 0 -15 -21 -39 -46z"/>
<path d="M5261 7270 c-65 -74 -85 -110 -62 -110 9 0 90 99 126 153 37 56 5 35
-64 -43z"/>
<path d="M2095 7240 c-10 -11 -16 -22 -14 -24 2 -2 12 7 22 20 22 29 17 32 -8
4z"/>
<path d="M3081 7048 c-8 -106 -15 -215 -17 -243 -6 -86 -26 -172 -54 -226 -10
-20 -4 -143 7 -146 12 -4 16 68 5 97 -8 23 11 86 32 107 3 4 6 -42 5 -101 -1
-58 1 -109 3 -111 9 -9 29 311 35 562 3 139 4 253 1 253 -2 0 -10 -87 -17
-192z"/>
<path d="M2842 7205 c-1 -16 -5 -41 -8 -55 -5 -19 -4 -22 5 -14 7 7 11 29 8
55 -2 30 -4 34 -5 14z"/>
<path d="M2757 7190 c-4 -19 -19 -47 -34 -62 -15 -15 -22 -28 -17 -28 6 0 23
13 38 29 21 22 27 36 24 62 l-3 34 -8 -35z"/>
<path d="M2685 7173 c-3 -21 -8 -49 -11 -63 -3 -18 -2 -21 5 -10 9 16 23 110
16 110 -2 0 -7 -17 -10 -37z"/>
<path d="M2583 7117 c-32 -61 -36 -74 -18 -52 30 35 68 111 63 124 -1 5 -22
-27 -45 -72z"/>
<path d="M2451 7125 c-18 -51 -35 -77 -78 -118 -30 -28 -62 -68 -72 -87 -9
-19 -30 -56 -45 -82 -15 -27 -26 -48 -23 -48 7 0 74 104 81 126 4 12 33 47 65
78 49 46 63 67 81 122 29 85 21 93 -9 9z"/>
<path d="M2915 7170 c-27 -30 -12 -34 15 -5 13 14 19 25 13 25 -5 0 -18 -9
-28 -20z"/>
<path d="M2007 7128 c-36 -63 -69 -129 -65 -133 2 -2 24 37 50 86 49 92 59
121 15 47z"/>
<path d="M2363 7098 c-32 -76 -49 -127 -41 -118 9 8 78 183 74 187 -2 2 -17
-29 -33 -69z"/>
<path d="M2528 7117 c-4 -32 -12 -65 -19 -73 -12 -15 -25 -83 -14 -72 4 3 7
16 9 29 1 13 10 36 20 51 12 18 16 41 14 75 l-3 48 -7 -58z"/>
<path d="M2791 7134 c0 -11 3 -14 6 -6 3 7 2 16 -1 19 -3 4 -6 -2 -5 -13z"/>
<path d="M2630 7108 c-12 -22 -12 -22 6 -6 10 10 15 20 12 24 -4 3 -12 -5 -18
-18z"/>
<path d="M2481 7079 c-13 -39 -14 -46 -2 -33 9 10 24 64 17 64 -2 0 -9 -14
-15 -31z"/>
<path d="M2921 7094 c0 -11 3 -14 6 -6 3 7 2 16 -1 19 -3 4 -6 -2 -5 -13z"/>
<path d="M2399 6969 c-58 -46 -76 -68 -78 -93 -1 -5 6 -3 14 4 8 7 15 18 15
25 0 6 29 33 65 60 36 26 65 49 65 51 0 13 -25 -2 -81 -47z"/>
<path d="M2776 6873 c-9 -82 -21 -174 -27 -206 -15 -85 -4 -81 14 5 17 77 43
336 35 344 -3 2 -12 -62 -22 -143z"/>
<path d="M2535 6999 c-4 -6 -5 -12 -2 -15 2 -3 7 2 10 11 7 17 1 20 -8 4z"/>
<path d="M4227 6993 c-4 -3 -7 -11 -7 -17 0 -6 5 -5 12 2 6 6 9 14 7 17 -3 3
-9 2 -12 -2z"/>
<path d="M1812 6930 c-31 -54 -28 -65 4 -12 14 24 24 45 22 47 -2 2 -13 -14
-26 -35z"/>
<path d="M2455 6938 c-8 -39 -10 -258 -2 -258 7 0 10 44 12 198 1 84 -1 99
-10 60z"/>
<path d="M2735 6888 c-10 -40 -24 -87 -31 -103 -17 -41 -56 -196 -51 -201 2
-3 16 40 31 93 34 123 35 127 41 121 3 -3 -2 -44 -10 -93 -17 -96 -14 -123 5
-48 11 46 41 295 35 301 -1 2 -11 -30 -20 -70z"/>
<path d="M2089 6928 c-7 -13 -19 -33 -27 -45 -8 -13 -10 -23 -5 -23 5 0 19 20
31 45 22 46 23 64 1 23z"/>
<path d="M2701 6923 c-17 -37 -51 -183 -50 -213 1 -20 2 -21 6 -5 2 11 18 69
34 129 30 108 33 140 10 89z"/>
<path d="M2836 6888 c-3 -35 -17 -109 -31 -166 -14 -57 -25 -113 -25 -125 1
-43 58 199 65 276 4 42 5 77 3 77 -3 0 -8 -28 -12 -62z"/>
<path d="M2529 6893 c-21 -46 -22 -47 -29 -23 -5 15 -8 -22 -8 -90 l1 -115 7
80 c5 56 16 96 35 133 15 30 25 56 22 59 -3 2 -15 -17 -28 -44z"/>
<path d="M2645 6900 c-21 -40 -47 -222 -39 -267 5 -26 4 -34 -5 -29 -6 4 -11
3 -11 -2 0 -6 7 -12 15 -16 12 -4 15 4 15 42 0 71 20 220 35 263 17 46 12 51
-10 9z"/>
<path d="M4185 6910 c-3 -5 -1 -10 4 -10 6 0 11 5 11 10 0 6 -2 10 -4 10 -3 0
-8 -4 -11 -10z"/>
<path d="M2581 6879 c-6 -18 -13 -78 -16 -133 -3 -65 -2 -92 4 -76 5 14 10 52
10 85 1 33 6 80 12 104 12 52 6 65 -10 20z"/>
<path d="M2407 6893 c-2 -5 -1 -19 4 -33 7 -23 7 -23 8 8 1 31 -3 40 -12 25z"/>
<path d="M5331 6874 c0 -11 3 -14 6 -6 3 7 2 16 -1 19 -3 4 -6 -2 -5 -13z"/>
<path d="M3357 6863 c-6 -10 43 -87 88 -138 22 -25 21 -22 -5 18 -18 27 -42
67 -55 89 -12 22 -25 36 -28 31z"/>
<path d="M2389 6824 c-3 -25 1 -46 8 -53 10 -9 13 -6 12 16 -1 15 -4 39 -8 53
-7 22 -8 20 -12 -16z"/>
<path d="M2532 6825 c-1 -16 -4 -55 -7 -85 -5 -45 -4 -50 5 -30 6 13 9 51 7
85 -2 33 -4 47 -5 30z"/>
<path d="M5321 6834 c0 -11 3 -14 6 -6 3 7 2 16 -1 19 -3 4 -6 -2 -5 -13z"/>
<path d="M3332 6810 c0 -14 2 -19 5 -12 2 6 2 18 0 25 -3 6 -5 1 -5 -13z"/>
<path d="M1327 6762 c3 -12 9 -25 14 -28 14 -8 11 10 -6 32 -13 18 -14 18 -8
-4z"/>
<path d="M3016 6714 c-4 -20 -5 -38 -3 -40 3 -3 8 11 11 32 4 20 5 38 3 40 -3
3 -8 -11 -11 -32z"/>
<path d="M5163 6632 c-28 -86 -32 -111 -37 -201 -4 -88 9 -75 19 19 4 36 18
107 30 158 12 50 19 92 16 92 -3 0 -16 -31 -28 -68z"/>
<path d="M3485 6670 c10 -11 20 -20 23 -20 3 0 -3 9 -13 20 -10 11 -20 20 -23
20 -3 0 3 -9 13 -20z"/>
<path d="M3001 6644 c0 -11 3 -14 6 -6 3 7 2 16 -1 19 -3 4 -6 -2 -5 -13z"/>
<path d="M2551 6624 c0 -11 3 -14 6 -6 3 7 2 16 -1 19 -3 4 -6 -2 -5 -13z"/>
<path d="M3570 6576 c30 -34 77 -86 104 -116 26 -30 39 -41 28 -25 -11 17 -58
69 -104 116 -46 47 -58 58 -28 25z"/>
<path d="M4242 6620 c0 -14 2 -19 5 -12 2 6 2 18 0 25 -3 6 -5 1 -5 -13z"/>
<path d="M4197 6578 c-21 -50 -39 -109 -35 -113 2 -2 15 30 30 71 27 75 30
101 5 42z"/>
<path d="M2691 6584 c0 -11 3 -14 6 -6 3 7 2 16 -1 19 -3 4 -6 -2 -5 -13z"/>
<path d="M4232 6565 c0 -16 2 -22 5 -12 2 9 2 23 0 30 -3 6 -5 -1 -5 -18z"/>
<path d="M4216 6487 c-4 -20 -22 -67 -41 -102 -18 -36 -32 -65 -30 -65 2 0 16
21 33 48 34 55 55 115 50 139 -2 10 -7 2 -12 -20z"/>
<path d="M3759 6421 c40 -40 77 -71 82 -69 5 2 -28 34 -73 72 l-83 68 74 -71z"/>
<path d="M7930 6398 c0 -3 11 -45 25 -92 26 -89 32 -183 15 -216 -5 -10 -41
-45 -80 -79 -39 -34 -67 -61 -62 -61 17 0 147 120 159 147 20 45 15 100 -18
202 -27 86 -39 115 -39 99z"/>
<path d="M4196 6355 c-3 -9 -6 -22 -5 -28 0 -7 5 -1 10 12 5 13 8 26 5 28 -2
2 -6 -3 -10 -12z"/>
<path d="M3985 6299 c-4 -6 -5 -12 -2 -15 2 -3 7 2 10 11 7 17 1 20 -8 4z"/>
<path d="M6960 6273 c0 -4 27 -17 60 -29 33 -12 60 -20 60 -18 0 5 -71 40 -97
48 -13 4 -23 4 -23 -1z"/>
<path d="M7110 6233 c0 -5 16 -27 36 -48 19 -21 43 -49 52 -63 15 -23 15 -25
-1 -37 -15 -11 -14 -13 8 -23 14 -6 27 -23 31 -39 4 -15 11 -34 17 -41 6 -8 0
-7 -19 3 -36 18 -69 20 -40 2 11 -7 43 -31 73 -55 43 -34 55 -40 59 -27 13 32
-19 107 -62 150 -23 24 -52 60 -62 82 -21 40 -92 115 -92 96z"/>
<path d="M4241 6124 c0 -11 3 -14 6 -6 3 7 2 16 -1 19 -3 4 -6 -2 -5 -13z"/>
<path d="M1691 6104 c0 -11 3 -14 6 -6 3 7 2 16 -1 19 -3 4 -6 -2 -5 -13z"/>
<path d="M2150 6113 c0 -7 4 -14 9 -17 5 -3 12 -22 16 -43 4 -25 9 -32 15 -23
4 7 3 25 -3 39 -13 32 -37 60 -37 44z"/>
<path d="M4461 6080 c0 -25 4 -63 8 -85 8 -37 9 -35 9 25 0 36 -3 74 -8 85 -6
15 -9 9 -9 -25z"/>
<path d="M2255 6080 c3 -5 8 -10 11 -10 2 0 4 5 4 10 0 6 -5 10 -11 10 -5 0
-7 -4 -4 -10z"/>
<path d="M2290 6076 c0 -2 8 -10 18 -17 15 -13 16 -12 3 4 -13 16 -21 21 -21
13z"/>
<path d="M2348 6024 c2 -20 8 -32 12 -27 10 9 1 63 -9 63 -4 0 -5 -16 -3 -36z"/>
<path d="M2902 6044 c-12 -8 -34 -40 -49 -70 -14 -29 -30 -54 -35 -54 -5 0 -6
-4 -3 -10 3 -5 2 -10 -2 -10 -15 0 -54 -136 -55 -190 -1 -40 3 -55 23 -76 44
-47 69 -54 201 -55 68 0 158 -4 200 -7 l78 -8 16 41 c19 48 29 142 20 181 -7
25 -9 26 -17 11 -13 -23 -44 -38 -63 -31 -23 9 -42 110 -24 131 12 14 11 15
-8 5 -21 -11 -21 -11 -3 -128 9 -65 13 -128 9 -143 -6 -20 -9 -11 -14 44 -4
39 -14 103 -22 144 -14 72 -14 76 6 103 12 17 15 25 6 22 -16 -6 -36 -47 -36
-76 0 -12 -20 -59 -45 -105 -25 -45 -45 -92 -45 -104 0 -19 -1 -19 -16 -5 -8
9 -20 16 -25 16 -15 0 -10 67 7 81 21 17 53 81 70 140 8 27 22 52 31 57 12 7
13 11 3 17 -8 5 -19 1 -28 -11 -29 -38 -101 -205 -108 -249 -9 -62 -53 -90
-108 -69 -26 10 -18 21 12 17 15 -2 38 2 52 10 20 10 25 21 27 55 3 40 53 155
94 214 11 15 26 45 34 68 14 40 14 41 -11 50 -41 16 -146 12 -172 -6z m76 -6
c-3 -7 -16 -14 -30 -16 -14 -2 -34 -12 -44 -23 -20 -22 -8 -25 21 -5 11 7 31
17 45 21 22 7 23 6 11 -9 -7 -9 -20 -16 -28 -16 -10 0 -13 -6 -9 -17 4 -10 -2
-24 -15 -36 -12 -11 -33 -44 -46 -74 -27 -58 -37 -68 -27 -25 13 53 45 110 67
117 20 7 20 8 3 12 -10 3 -26 -3 -36 -14 -22 -22 -89 -182 -100 -238 l-8 -40
-1 38 c-2 82 91 300 139 324 32 16 63 17 58 1z m101 -8 c-9 -5 -20 -21 -23
-35 -6 -22 -147 -237 -153 -232 -6 7 70 149 82 153 21 9 58 72 51 89 -3 8 -15
15 -26 15 -12 0 -18 5 -15 10 3 6 27 10 53 10 35 -1 43 -3 31 -10z m-59 -29
c0 -5 -20 -33 -44 -61 -25 -29 -56 -76 -70 -104 -19 -37 -24 -43 -19 -21 9 48
39 104 80 150 38 43 53 53 53 36z m120 -226 c0 -19 -4 -35 -10 -35 -5 0 -10
16 -10 35 0 19 5 35 10 35 6 0 10 -16 10 -35z m-283 19 c-3 -3 -12 -4 -19 -1
-8 3 -5 6 6 6 11 1 17 -2 13 -5z m-23 -66 c-5 -31 -4 -39 5 -33 8 5 7 -3 -3
-23 -18 -35 -45 -57 -31 -26 4 10 10 37 12 59 5 46 10 65 18 65 3 0 2 -19 -1
-42z m94 -10 c-8 -12 -25 -29 -38 -37 -23 -15 -23 -14 4 22 30 39 59 52 34 15z
m176 -5 c-10 -40 -14 -41 -14 -5 0 18 5 32 10 32 6 0 8 -11 4 -27z m33 -45
c-2 -13 -4 -3 -4 22 0 25 2 35 4 23 2 -13 2 -33 0 -45z m96 -81 c-9 -14 -23 4
-23 31 l1 27 13 -25 c8 -14 12 -28 9 -33z"/>
<path d="M4255 6049 c-4 -6 -5 -12 -2 -15 2 -3 7 2 10 11 7 17 1 20 -8 4z"/>
<path d="M3446 6020 c12 -14 26 -34 32 -45 6 -11 12 -14 12 -7 0 7 -15 27 -32
45 -18 18 -23 21 -12 7z"/>
<path d="M2210 6016 c0 -9 5 -16 10 -16 6 0 10 4 10 9 0 6 -4 13 -10 16 -5 3
-10 -1 -10 -9z"/>
<path d="M3110 6022 c0 -13 50 -65 56 -59 3 2 -9 19 -26 37 -16 18 -30 27 -30
22z"/>
<path d="M3150 6026 c0 -2 7 -7 16 -10 8 -3 12 -2 9 4 -6 10 -25 14 -25 6z"/>
<path d="M3683 5942 l-1 -67 10 59 c5 33 6 62 1 67 -5 5 -9 -21 -10 -59z"/>
<path d="M3210 5997 c0 -2 15 -16 33 -33 l32 -29 -29 33 c-28 30 -36 37 -36
29z"/>
<path d="M7340 5991 c0 -12 69 -55 76 -48 5 5 -58 57 -69 57 -4 0 -7 -4 -7 -9z"/>
<path d="M3616 5928 c-4 -35 -14 -89 -23 -121 -9 -32 -14 -60 -11 -62 8 -8 46
134 52 193 3 28 1 52 -3 52 -5 0 -11 -28 -15 -62z"/>
<path d="M2385 5963 c-8 -24 -24 -29 -40 -14 -15 14 -55 23 -55 13 0 -5 21
-17 46 -27 51 -19 69 -12 61 26 l-4 24 -8 -22z"/>
<path d="M3225 5941 c-3 -5 -1 -12 5 -16 5 -3 10 1 10 9 0 18 -6 21 -15 7z"/>
<path d="M3107 5923 c-3 -5 -10 -28 -17 -53 -7 -25 -28 -71 -47 -103 -19 -31
-33 -65 -31 -75 3 -13 7 -10 20 13 8 17 29 55 47 85 17 30 31 65 31 78 0 13 5
32 10 43 10 18 -3 29 -13 12z"/>
<path d="M3760 5863 c-3 -29 -1 -48 3 -44 5 5 7 28 5 52 l-3 44 -5 -52z"/>
<path d="M3482 5875 c0 -16 2 -22 5 -12 2 9 2 23 0 30 -3 6 -5 -1 -5 -18z"/>
<path d="M3633 5796 c-13 -39 -32 -101 -43 -138 -12 -38 -25 -68 -30 -68 -14
0 -42 -58 -31 -64 5 -4 5 -23 0 -47 -16 -69 -3 -55 17 18 10 37 26 79 35 93
10 14 23 52 29 85 6 33 21 86 32 117 11 31 19 61 17 66 -2 6 -14 -22 -26 -62z"/>
<path d="M3683 5835 c0 -22 2 -30 4 -17 2 12 2 30 0 40 -3 9 -5 -1 -4 -23z"/>
<path d="M3545 5791 c-4 -41 -18 -113 -31 -160 -28 -101 -24 -121 5 -27 21 70
46 227 38 248 -2 7 -8 -21 -12 -61z"/>
<path d="M5191 5854 c-2 -19 45 -147 76 -209 16 -33 71 -139 121 -236 111
-213 133 -286 135 -444 1 -133 -24 -289 -58 -363 -14 -30 -24 -57 -22 -59 8
-7 68 141 83 205 10 42 16 114 16 192 0 191 -22 260 -166 520 -84 151 -110
207 -160 340 -14 36 -25 60 -25 54z"/>
<path d="M3512 5830 c0 -14 2 -19 5 -12 2 6 2 18 0 25 -3 6 -5 1 -5 -13z"/>
<path d="M3471 5824 c0 -11 3 -14 6 -6 3 7 2 16 -1 19 -3 4 -6 -2 -5 -13z"/>
<path d="M3811 5784 c0 -11 3 -14 6 -6 3 7 2 16 -1 19 -3 4 -6 -2 -5 -13z"/>
<path d="M7632 5743 c57 -62 96 -139 133 -261 16 -50 30 -90 33 -88 2 3 -1 35
-8 72 -21 112 -103 257 -172 305 -29 20 -28 17 14 -28z"/>
<path d="M3502 5750 c0 -19 2 -27 5 -17 2 9 2 25 0 35 -3 9 -5 1 -5 -18z"/>
<path d="M2525 5723 c52 -27 97 -64 172 -140 56 -57 108 -103 115 -103 7 0
-34 47 -92 103 -75 74 -125 113 -176 140 -40 20 -76 37 -80 37 -5 0 23 -17 61
-37z"/>
<path d="M3433 5710 c0 -25 2 -35 4 -22 2 12 2 32 0 45 -2 12 -4 2 -4 -23z"/>
<path d="M3561 5663 c0 -12 -4 -30 -7 -40 -5 -17 -5 -17 6 0 6 10 9 28 7 40
-4 22 -4 22 -6 0z"/>
<path d="M3380 5656 c0 -9 5 -16 10 -16 6 0 10 4 10 9 0 6 -4 13 -10 16 -5 3
-10 -1 -10 -9z"/>
<path d="M6803 5518 c3 -84 9 -163 13 -176 l7 -23 14 21 c13 18 13 29 3 68 -6
26 -14 95 -17 155 -3 59 -10 107 -16 107 -6 0 -8 -55 -4 -152z"/>
<path d="M3416 5574 c-20 -42 -35 -78 -33 -80 2 -2 15 8 29 21 24 22 38 23 38
3 0 -5 -4 -6 -10 -3 -5 3 -10 -2 -10 -11 0 -16 1 -16 18 -1 18 17 27 51 10 41
-16 -10 -21 29 -9 63 23 64 4 44 -33 -33z"/>
<path d="M6746 5641 c-4 -7 -5 -15 -2 -18 9 -9 19 4 14 18 -4 11 -6 11 -12 0z"/>
<path d="M6642 5635 c2 -5 10 -25 17 -42 7 -18 17 -33 22 -33 15 0 10 15 -17
51 -15 19 -24 30 -22 24z"/>
<path d="M7296 5601 c-12 -13 -14 -21 -6 -26 14 -8 15 -7 24 23 9 27 4 28 -18
3z"/>
<path d="M3471 5574 c0 -11 3 -14 6 -6 3 7 2 16 -1 19 -3 4 -6 -2 -5 -13z"/>
<path d="M7650 5584 c0 -6 27 -68 60 -137 33 -69 73 -175 90 -235 44 -157 100
-292 138 -329 11 -10 49 -59 85 -109 59 -80 102 -124 123 -124 10 0 -55 110
-119 200 -82 116 -98 150 -162 347 -31 94 -62 174 -70 176 -10 5 -9 -5 5 -41
11 -26 44 -118 74 -205 33 -96 69 -180 91 -214 40 -60 42 -84 2 -31 -31 41
-87 154 -115 233 -38 105 -81 257 -76 269 3 7 -25 57 -60 112 -36 54 -66 94
-66 88z"/>
<path d="M6757 5500 c6 -102 26 -180 52 -204 18 -16 20 -16 49 8 l30 26 48
-37 c27 -20 63 -47 79 -61 17 -14 5 -1 -25 29 -30 30 -66 62 -80 70 -23 15
-25 24 -29 105 -5 106 -18 80 -20 -38 -1 -68 -4 -79 -22 -89 -29 -15 -31 -10
-53 113 -27 154 -35 176 -29 78z"/>
<path d="M7326 5562 c-9 -11 -36 -23 -58 -26 -31 -5 -50 -16 -74 -44 l-32 -37
4 45 4 45 -17 -45 -18 -45 -5 45 c-4 33 -7 40 -12 27 -5 -10 -8 -32 -8 -47 0
-16 -4 -32 -10 -35 -6 -4 -10 10 -10 34 0 57 -18 51 -23 -6 -3 -40 -4 -37 -6
22 l-3 70 -13 -49 c-21 -74 -38 -83 -30 -16 l6 55 -33 -74 c-23 -52 -34 -67
-36 -52 -5 31 -32 81 -32 59 0 -10 -4 -18 -10 -18 -6 0 -10 -27 -10 -60 0 -59
1 -60 41 -85 83 -53 241 -225 334 -364 107 -159 179 -238 259 -286 69 -40 86
-43 111 -15 10 11 13 20 7 20 -18 0 -55 70 -59 113 -6 57 -37 112 -80 142 -21
14 -33 25 -27 25 22 0 93 -72 115 -118 16 -32 25 -41 27 -29 2 10 11 16 20 15
11 -2 18 5 20 19 2 12 9 27 17 33 11 9 14 -1 20 -57 9 -98 13 -99 13 -7 0 45
6 107 13 138 12 47 17 56 36 56 17 0 25 -9 34 -40 18 -59 29 -49 14 13 -49
199 -107 370 -140 413 -13 17 -14 16 -4 -14 19 -55 4 -46 -49 31 -28 41 -62
81 -75 90 -30 19 -122 47 -158 47 -16 0 -32 7 -37 15 -7 14 -10 13 -26 -3z
m183 -61 c20 -11 53 -37 72 -58 37 -41 139 -212 139 -233 0 -20 -36 31 -68 98
-16 34 -40 77 -52 97 -23 37 -110 95 -145 95 -11 0 -27 5 -35 10 -29 19 49 11
89 -9z m-482 -108 c-3 -10 -5 -4 -5 12 0 17 2 24 5 18 2 -7 2 -21 0 -30z m-46
0 c-12 -20 -14 -14 -5 12 4 9 9 14 11 11 3 -2 0 -13 -6 -23z m80 -125 c8 -15
8 -18 0 -14 -6 4 -16 16 -22 28 -8 15 -8 18 0 14 6 -4 16 -16 22 -28z m327
-152 c72 -39 129 -72 127 -74 -10 -11 -207 83 -242 114 -49 45 -41 43 115 -40z
m352 18 c0 -8 -6 -11 -15 -8 -8 4 -15 15 -15 26 0 17 3 18 15 8 8 -7 15 -19
15 -26z m35 -74 c9 -15 -21 -23 -53 -15 l-27 8 25 7 c36 11 48 11 55 0z m-485
-61 c15 -28 5 -23 -15 7 -9 15 -12 23 -6 20 6 -4 16 -16 21 -27z m106 -24
c-10 -8 -23 -12 -29 -8 -11 7 12 23 33 23 12 -1 11 -4 -4 -15z m138 -183 c70
-77 84 -99 37 -59 -53 44 -171 198 -171 223 0 5 15 -14 34 -42 19 -28 64 -83
100 -122z m30 22 c18 -17 22 -39 6 -29 -11 7 -33 45 -26 45 2 0 12 -7 20 -16z
m43 -141 c3 -8 2 -17 -1 -21 -7 -6 -22 9 -69 73 l-22 30 44 -34 c23 -19 45
-40 48 -48z"/>
<path d="M3355 5540 c-3 -5 -1 -10 4 -10 6 0 11 5 11 10 0 6 -2 10 -4 10 -3 0
-8 -4 -11 -10z"/>
<path d="M2945 5530 c17 -4 59 -9 95 -10 123 -4 131 -18 12 -19 -154 -1 -178
-14 -228 -119 -35 -71 -43 -183 -17 -232 21 -41 117 -104 148 -96 126 32 190
55 206 75 30 36 43 98 43 206 1 80 -3 106 -16 128 -10 14 -18 29 -18 32 0 3
30 5 68 5 48 0 76 -5 98 -19 35 -21 108 -120 149 -201 38 -76 83 -129 178
-209 125 -104 141 -104 44 -1 -75 80 -97 112 -148 214 -40 82 -62 138 -66 174
-6 55 -16 65 -33 32 -8 -15 -6 -24 9 -39 11 -11 23 -37 27 -58 3 -21 15 -53
26 -72 10 -18 17 -36 14 -38 -2 -3 -10 5 -16 17 -6 12 -27 39 -45 59 -19 21
-46 57 -59 82 -16 27 -26 37 -26 25 0 -15 -5 -14 -34 12 -20 17 -51 33 -73 36
-55 9 -290 26 -332 25 l-36 -1 30 -8z m172 -222 c-3 -8 -6 -5 -6 6 -1 11 2 17
5 13 3 -3 4 -12 1 -19z m-123 -183 c26 -4 60 -5 77 -1 16 3 28 2 25 -3 -3 -4
-32 -14 -65 -20 -70 -14 -96 -5 -129 43 -34 50 -26 66 12 24 26 -28 44 -38 80
-43z"/>
<path d="M6060 5425 c-41 -41 -72 -75 -69 -75 2 0 38 34 79 75 41 41 72 75 69
75 -2 0 -38 -34 -79 -75z"/>
<path d="M2557 5433 c21 -34 39 -60 41 -58 6 5 -25 58 -53 90 -18 21 -14 12
12 -32z"/>
<path d="M3268 5340 c-4 -58 -10 -116 -14 -130 -4 -14 -3 -21 1 -17 5 4 10 13
11 20 14 80 18 131 14 177 -5 48 -6 42 -12 -50z"/>
<path d="M6115 5378 c-43 -48 -71 -88 -62 -88 3 0 30 32 61 70 31 39 54 70 52
70 -2 0 -25 -23 -51 -52z"/>
<path d="M6472 5398 c-15 -42 -37 -52 -30 -13 3 13 1 22 -3 19 -5 -3 -9 -14
-9 -25 0 -11 -10 -24 -22 -29 -17 -8 -12 -9 22 -4 56 8 62 13 58 55 l-3 34
-13 -37z"/>
<path d="M4715 5390 c-11 -18 6 -50 35 -65 39 -20 40 -19 40 13 0 44 -56 83
-75 52z m65 -51 c0 -13 -24 -11 -38 3 -7 7 -12 18 -12 25 0 10 6 10 25 -3 14
-9 25 -20 25 -25z"/>
<path d="M5500 5373 c0 -6 8 -17 18 -24 16 -13 16 -13 2 6 -8 11 -16 22 -17
24 -2 2 -3 0 -3 -6z"/>
<path d="M3406 5335 c-3 -9 -1 -23 4 -33 5 -9 19 -42 30 -74 12 -31 33 -72 48
-91 25 -31 128 -122 177 -156 24 -17 -53 59 -114 111 -24 20 -40 42 -36 48 4
6 43 -20 98 -66 l92 -76 -91 89 c-116 112 -198 216 -191 243 6 23 -8 27 -17 5z
m108 -186 c-3 -5 -10 -7 -15 -3 -5 3 -7 10 -3 15 3 5 10 7 15 3 5 -3 7 -10 3
-15z"/>
<path d="M3301 5340 c0 -3 9 -34 19 -70 14 -44 18 -52 14 -25 -5 33 -31 110
-33 95z"/>
<path d="M5546 5313 c-4 -9 -3 -20 2 -25 6 -6 12 -1 15 11 6 25 -8 38 -17 14z"/>
<path d="M5741 5219 c-30 -33 -52 -61 -49 -64 6 -7 108 101 108 114 0 15 2 16
-59 -50z"/>
<path d="M5835 5269 c-4 -6 -5 -12 -2 -15 2 -3 7 2 10 11 7 17 1 20 -8 4z"/>
<path d="M6097 5248 c-31 -31 -31 -32 -2 -8 16 14 34 28 40 32 5 5 6 8 2 8 -4
0 -22 -15 -40 -32z"/>
<path d="M5510 5269 c0 -15 44 -104 62 -123 10 -11 25 -41 33 -66 11 -36 14
-40 14 -18 1 15 -6 46 -15 68 -9 22 -22 64 -30 92 l-13 53 4 -44 c2 -30 1 -40
-6 -30 -5 7 -9 25 -9 39 0 18 -3 21 -9 11 -7 -11 -11 -10 -20 5 -6 11 -11 16
-11 13z"/>
<path d="M5754 5175 l-58 -65 -23 27 c-23 27 -24 27 -12 3 26 -55 29 -55 86 7
51 55 80 93 69 93 -3 0 -31 -29 -62 -65z"/>
<path d="M5993 5182 c-39 -56 -132 -253 -204 -427 -54 -132 -88 -185 -119
-185 -10 0 -20 -9 -23 -20 -6 -25 -6 -25 37 1 42 24 66 63 113 183 60 152 140
325 188 409 52 89 56 110 8 39z"/>
<path d="M3289 5208 c0 -2 -2 -16 -4 -33 -13 -101 -19 -122 -40 -145 -21 -22
-61 -137 -51 -147 2 -2 16 27 31 64 15 37 33 75 40 83 37 41 60 159 35 175 -5
3 -10 5 -11 3z"/>
<path d="M2592 5113 c-13 -37 -31 -94 -40 -125 -16 -56 -16 -57 7 -81 17 -19
19 -26 9 -30 -10 -4 -10 -6 0 -6 6 -1 12 -12 12 -25 0 -13 3 -32 7 -42 14 -37
21 20 7 60 -12 33 -11 50 7 137 11 54 19 117 17 140 l-3 40 -23 -68z"/>
<path d="M1940 5165 c0 -7 50 -85 54 -85 1 0 2 8 3 19 1 10 -12 31 -28 47 -16
15 -29 24 -29 19z"/>
<path d="M2704 5086 c1 -58 5 -69 48 -134 54 -81 106 -120 167 -128 23 -3 53
-9 67 -14 18 -7 24 -6 24 4 0 7 -12 13 -29 14 -36 1 -108 20 -143 38 -42 22
-83 99 -84 160 0 45 1 50 14 38 22 -23 24 -10 6 35 -12 30 -21 40 -32 36 -8
-3 -20 -1 -27 5 -9 7 -12 -5 -11 -54z"/>
<path d="M6002 5118 c-14 -19 -64 -119 -60 -123 2 -2 19 28 39 66 36 69 40 80
21 57z"/>
<path d="M5740 5091 c-13 -11 -28 -17 -32 -15 -4 3 -5 -2 -2 -11 6 -14 11 -12
35 11 26 25 34 34 27 34 -2 0 -14 -9 -28 -19z"/>
<path d="M5572 5080 c0 -14 2 -19 5 -12 2 6 2 18 0 25 -3 6 -5 1 -5 -13z"/>
<path d="M3045 5059 c-38 -15 -60 -28 -48 -29 26 0 108 34 117 49 4 6 6 11 4
10 -2 -1 -34 -14 -73 -30z"/>
<path d="M5772 5058 c-30 -19 -31 -21 -15 -33 15 -12 19 -11 22 3 1 9 10 25
19 35 19 21 16 21 -26 -5z"/>
<path d="M7818 5045 c-4 -4 2 -30 14 -59 11 -28 31 -80 44 -116 13 -35 34 -73
46 -85 l21 -20 -14 25 c-17 28 -83 189 -96 233 -5 16 -11 25 -15 22z"/>
<path d="M3735 4976 c17 -14 26 -26 21 -26 -5 0 1 -11 14 -25 32 -34 50 -32
19 2 -26 29 -8 20 40 -22 l24 -20 -12 22 c-12 24 -49 52 -101 77 l-35 17 30
-25z"/>
<path d="M5925 4969 c-4 -6 -5 -12 -2 -15 2 -3 7 2 10 11 7 17 1 20 -8 4z"/>
<path d="M6452 4901 c-22 -39 -29 -105 -13 -130 11 -18 24 3 17 27 -3 9 1 44
8 77 8 33 13 61 12 62 -1 2 -12 -15 -24 -36z"/>
<path d="M2450 4920 c0 -5 9 -10 19 -10 11 0 23 5 26 10 4 6 -5 10 -19 10 -14
0 -26 -4 -26 -10z"/>
<path d="M3704 4877 c55 -52 56 -53 56 -33 0 7 -11 21 -25 30 -71 46 -77 46
-31 3z"/>
<path d="M3480 4902 c0 -15 48 -74 91 -110 40 -35 42 -35 36 -12 -4 14 -7 33
-7 43 0 10 -4 15 -10 12 -5 -3 -10 0 -10 8 0 15 -47 63 -55 56 -2 -3 3 -18 11
-34 15 -29 15 -29 -5 -11 -11 10 -23 27 -26 37 -6 19 -25 27 -25 11z"/>
<path d="M7941 4848 c-2 -40 90 -200 106 -185 2 3 -18 42 -45 88 -27 46 -52
91 -55 99 -4 12 -6 12 -6 -2z"/>
<path d="M6744 4831 c-40 -18 -102 -74 -131 -118 -13 -20 -12 -25 8 -53 30
-40 49 -44 150 -30 73 10 88 16 117 43 37 36 41 67 12 114 -20 33 -66 63 -97
63 -10 0 -36 -9 -59 -19z"/>
<path d="M6568 4696 c-26 -33 -27 -34 -8 -51 10 -9 24 -14 30 -10 6 4 23 -4
37 -16 23 -21 22 -19 -5 20 -23 31 -30 50 -26 67 8 32 4 30 -28 -10z"/>
<path d="M6991 4686 c-6 -16 -10 -31 -7 -33 7 -8 28 37 23 50 -3 7 -10 -1 -16
-17z"/>
<path d="M6882 4605 c0 -16 2 -22 5 -12 2 9 2 23 0 30 -3 6 -5 -1 -5 -18z"/>
<path d="M6103 4544 c-10 -27 -9 -408 2 -426 7 -11 11 54 13 213 4 213 1 253
-15 213z"/>
<path d="M6132 4445 c0 -27 4 -81 8 -120 l7 -70 0 95 c1 52 -3 106 -7 120 -6
19 -8 14 -8 -25z"/>
<path d="M4388 4449 c-16 -25 -16 -26 15 -37 18 -5 52 -13 77 -16 l45 -7 -34
16 c-18 8 -41 15 -50 15 -10 0 -21 12 -27 27 l-9 27 -17 -25z"/>
<path d="M6171 4414 c0 -11 3 -14 6 -6 3 7 2 16 -1 19 -3 4 -6 -2 -5 -13z"/>
<path d="M6836 4348 c-27 -123 -30 -144 -18 -133 10 10 45 196 38 203 -2 2
-11 -30 -20 -70z"/>
<path d="M4558 4383 c6 -2 18 -2 25 0 6 3 1 5 -13 5 -14 0 -19 -2 -12 -5z"/>
<path d="M6183 4335 c0 -22 2 -30 4 -17 2 12 2 30 0 40 -3 9 -5 -1 -4 -23z"/>
<path d="M4785 4345 c28 -8 77 -17 110 -19 l60 -6 -59 14 c-32 8 -82 16 -110
19 l-51 6 50 -14z"/>
<path d="M6261 4314 c0 -11 3 -14 6 -6 3 7 2 16 -1 19 -3 4 -6 -2 -5 -13z"/>
<path d="M4968 4313 c6 -2 18 -2 25 0 6 3 1 5 -13 5 -14 0 -19 -2 -12 -5z"/>
<path d="M8860 4230 c60 -73 98 -137 147 -250 13 -30 22 -44 19 -30 -3 14 -25
68 -50 121 -34 72 -60 111 -111 164 l-66 70 61 -75z"/>
<path d="M6791 4129 c-7 -38 -11 -72 -9 -75 3 -2 10 28 17 67 7 38 11 72 9 75
-3 2 -10 -28 -17 -67z"/>
<path d="M6772 4014 c-1 -17 -5 -47 -8 -65 -5 -26 -4 -31 5 -23 8 7 11 32 8
65 -2 30 -4 40 -5 23z"/>
<path d="M8690 3779 c0 -20 20 -142 26 -158 2 -8 7 -11 10 -9 3 3 -2 43 -12
89 -16 81 -24 108 -24 78z"/>
<path d="M7826 3752 c-2 -4 -1 -14 5 -22 7 -12 9 -10 9 8 0 23 -5 28 -14 14z"/>
<path d="M7856 3718 c-14 -17 -26 -37 -26 -42 0 -11 32 25 51 57 15 27 5 20
-25 -15z"/>
<path d="M8530 3713 c-23 -58 -23 -61 0 -20 12 21 20 43 18 48 -2 6 -10 -7
-18 -28z"/>
<path d="M8036 3715 c-9 -26 -7 -32 5 -12 6 10 9 21 6 23 -2 3 -7 -2 -11 -11z"/>
<path d="M8622 3680 c-1 -25 -5 -56 -8 -70 -5 -19 -4 -22 5 -14 8 7 11 33 8
70 -3 51 -3 53 -5 14z"/>
<path d="M6096 3683 c-3 -16 -9 -39 -12 -52 -5 -16 -4 -22 4 -17 6 3 13 -2 15
-11 3 -10 5 10 6 45 1 67 -3 78 -13 35z"/>
<path d="M8552 3665 c-12 -19 -18 -35 -14 -35 10 0 45 60 39 66 -2 3 -14 -11
-25 -31z"/>
<path d="M7775 3670 c-10 -11 -16 -22 -14 -24 2 -2 12 7 22 20 22 29 17 32 -8
4z"/>
<path d="M7605 3669 c-4 -6 -5 -12 -2 -15 2 -3 7 2 10 11 7 17 1 20 -8 4z"/>
<path d="M8900 3670 c-11 -8 -7 -9 15 -4 37 8 45 14 19 14 -10 0 -26 -5 -34
-10z"/>
<path d="M7665 3633 c-4 -16 -8 -37 -10 -47 -2 -10 0 -15 4 -10 10 11 24 84
17 84 -3 0 -8 -12 -11 -27z"/>
<path d="M8670 3641 c0 -12 5 -21 10 -21 6 0 10 6 10 14 0 8 -4 18 -10 21 -5
3 -10 -3 -10 -14z"/>
<path d="M8840 3650 c-9 -6 -10 -10 -3 -10 6 0 15 5 18 10 8 12 4 12 -15 0z"/>
<path d="M6336 3632 c-4 -13 -5 -26 -2 -29 10 -11 18 4 14 29 l-4 23 -8 -23z"/>
<path d="M8092 3625 c0 -16 2 -22 5 -12 2 9 2 23 0 30 -3 6 -5 -1 -5 -18z"/>
<path d="M8778 3643 c-10 -2 -18 -9 -18 -14 0 -13 12 -11 34 6 20 15 16 17
-16 8z"/>
<path d="M6731 3624 c0 -11 3 -14 6 -6 3 7 2 16 -1 19 -3 4 -6 -2 -5 -13z"/>
<path d="M8475 3610 c-10 -11 -13 -20 -8 -20 13 0 38 29 31 35 -3 3 -13 -4
-23 -15z"/>
<path d="M8551 3614 c-18 -8 -32 -16 -30 -18 10 -9 68 8 73 20 7 17 1 17 -43
-2z"/>
<path d="M6061 3512 c-7 -51 -11 -96 -8 -98 8 -8 29 130 25 163 -2 15 -9 -14
-17 -65z"/>
<path d="M6360 3571 c-8 -21 -9 -39 -3 -58 9 -26 10 -24 16 26 8 64 4 73 -13
32z"/>
<path d="M6701 3515 c-13 -48 -21 -89 -17 -92 15 -15 35 24 41 81 11 100 2
103 -24 11z"/>
<path d="M7553 3550 c-10 -39 -10 -40 8 -24 11 9 19 28 19 41 0 36 -15 27 -27
-17z"/>
<path d="M7609 3536 c-15 -13 -32 -33 -39 -45 -11 -21 -10 -22 10 -11 12 6 24
19 27 28 4 9 14 22 22 29 9 6 14 14 11 16 -3 3 -17 -5 -31 -17z"/>
<path d="M7190 3545 c0 -15 33 -75 41 -75 5 0 5 8 2 18 -8 20 -43 68 -43 57z"/>
<path d="M3545 4090 c-4 -6 3 -25 14 -43 l21 -32 0 27 c0 48 -19 74 -35 48z"/>
<path d="M3690 4075 c7 -8 17 -15 22 -15 6 0 5 7 -2 15 -7 8 -17 15 -22 15 -6
0 -5 -7 2 -15z"/>
<path d="M5843 3835 c0 -22 2 -30 4 -17 2 12 2 30 0 40 -3 9 -5 -1 -4 -23z"/>
<path d="M5811 3714 c0 -11 3 -14 6 -6 3 7 2 16 -1 19 -3 4 -6 -2 -5 -13z"/>
<path d="M5950 3752 c0 -10 -4 -22 -9 -27 -5 -6 -19 -62 -31 -125 -28 -139
-30 -160 -21 -160 4 0 14 33 21 73 7 39 19 92 27 117 14 46 26 140 18 140 -3
0 -5 -8 -5 -18z"/>
<path d="M4147 3351 c21 -38 39 -68 41 -66 5 4 -68 135 -74 135 -3 0 12 -31
33 -69z"/>
<path d="M5166 3145 c-9 -26 -7 -32 5 -12 6 10 9 21 6 23 -2 3 -7 -2 -11 -11z"/>
<path d="M4669 3063 c-13 -16 -12 -17 4 -4 16 13 21 21 13 21 -2 0 -10 -8 -17
-17z"/>
<path d="M4630 2806 c0 -11 70 -126 77 -126 3 0 -7 21 -23 48 -36 62 -54 88
-54 78z"/>
<path d="M5290 2681 c0 -6 4 -13 10 -16 6 -3 7 1 4 9 -7 18 -14 21 -14 7z"/>
<path d="M4710 2666 c0 -11 161 -225 188 -249 15 -14 22 -15 28 -6 4 7 3 10
-4 5 -6 -3 -30 19 -55 50 -39 49 -44 61 -37 85 5 17 5 29 -1 29 -5 0 -9 6 -9
14 0 17 -30 50 -38 42 -2 -3 1 -12 8 -21 7 -9 11 -18 8 -21 -3 -2 -24 15 -47
38 -22 24 -41 39 -41 34z"/>
<path d="M5320 2630 c6 -11 13 -20 16 -20 2 0 0 9 -6 20 -6 11 -13 20 -16 20
-2 0 0 -9 6 -20z"/>
<path d="M4660 2565 c41 -44 77 -79 80 -77 2 1 -32 37 -75 80 l-79 77 74 -80z"/>
<path d="M5254 2130 c27 -5 54 -14 59 -19 6 -6 22 -11 37 -11 30 0 87 -39 58
-40 -28 0 -21 -17 10 -25 15 -3 44 -17 65 -31 54 -36 45 -13 -15 39 -63 53
-89 67 -122 67 -13 0 -26 5 -28 11 -2 6 -28 13 -58 15 l-55 3 49 -9z"/>
<path d="M5720 1650 c0 -34 4 -59 8 -56 12 7 13 104 2 111 -6 4 -10 -17 -10
-55z"/>
<path d="M9122 3760 c0 -14 2 -19 5 -12 2 6 2 18 0 25 -3 6 -5 1 -5 -13z"/>
<path d="M9202 3720 c0 -8 4 -26 8 -40 6 -20 8 -21 8 -5 0 11 -3 29 -8 40 -5
12 -8 14 -8 5z"/>
<path d="M9223 3560 c0 -66 -8 -125 -26 -195 -32 -127 -40 -165 -29 -145 5 8
14 41 21 73 7 31 16 55 21 52 5 -3 11 25 15 62 4 38 14 91 22 118 11 38 12 59
5 85 l-10 35 -2 -30 c-3 -30 -3 -30 -9 5 -4 22 -7 1 -8 -60z"/>
<path d="M9056 3497 c-4 -43 -6 -81 -3 -84 7 -6 20 119 15 143 -2 10 -8 -16
-12 -59z"/>
<path d="M9263 3290 c0 -41 2 -58 4 -37 2 20 2 54 0 75 -2 20 -4 3 -4 -38z"/>
<path d="M9217 3306 c-4 -15 -6 -31 -2 -34 10 -10 16 6 13 35 l-3 28 -8 -29z"/>
<path d="M9185 3190 c-4 -12 -5 -24 -2 -27 3 -2 8 5 12 17 4 12 5 24 2 27 -3
2 -8 -5 -12 -17z"/>
<path d="M8786 3148 c-3 -29 -8 -71 -11 -93 -4 -34 -4 -36 4 -12 11 33 26 157
19 157 -3 0 -8 -24 -12 -52z"/>
<path d="M8731 2164 c0 -11 3 -14 6 -6 3 7 2 16 -1 19 -3 4 -6 -2 -5 -13z"/>
<path d="M8464 3167 c3 -10 17 -62 32 -115 14 -53 31 -100 39 -104 7 -4 16
-20 19 -34 4 -15 9 -24 12 -21 7 7 -63 216 -87 257 -11 19 -18 27 -15 17z"/>
<path d="M8531 2924 c0 -11 3 -14 6 -6 3 7 2 16 -1 19 -3 4 -6 -2 -5 -13z"/>
<path d="M8622 2850 c0 -14 2 -19 5 -12 2 6 2 18 0 25 -3 6 -5 1 -5 -13z"/>
<path d="M8631 2804 c0 -11 3 -14 6 -6 3 7 2 16 -1 19 -3 4 -6 -2 -5 -13z"/>
<path d="M7706 2717 c-6 -41 -55 -193 -56 -172 0 13 -22 -20 -61 -90 -27 -49
-32 -70 -33 -127 l-1 -69 22 28 c30 37 39 24 15 -24 -28 -55 -52 -113 -46
-113 3 0 29 51 59 113 42 89 59 139 80 242 26 131 42 255 33 255 -3 0 -9 -19
-12 -43z"/>
<path d="M7251 2509 c1 -63 4 -125 9 -139 4 -14 5 36 2 110 -2 74 -6 137 -8
139 -2 2 -4 -47 -3 -110z"/>
<path d="M7472 2095 c0 -16 2 -22 5 -12 2 9 2 23 0 30 -3 6 -5 -1 -5 -18z"/>
<path d="M6352 3100 c0 -14 2 -19 5 -12 2 6 2 18 0 25 -3 6 -5 1 -5 -13z"/>
<path d="M6336 3053 c-6 -14 -5 -15 5 -6 7 7 10 15 7 18 -3 3 -9 -2 -12 -12z"/>
<path d="M6162 3130 c0 -19 2 -27 5 -17 2 9 2 25 0 35 -3 9 -5 1 -5 -18z"/>
<path d="M7211 3094 c0 -11 3 -14 6 -6 3 7 2 16 -1 19 -3 4 -6 -2 -5 -13z"/>
<path d="M7195 3023 c-4 -27 -9 -56 -12 -65 -3 -12 1 -18 11 -18 13 0 16 13
16 65 0 36 -2 65 -4 65 -3 0 -8 -21 -11 -47z"/>
<path d="M6990 2935 c0 -11 10 -15 38 -14 30 2 32 3 10 6 -16 2 -28 9 -28 14
0 5 -4 9 -10 9 -5 0 -10 -7 -10 -15z"/>
<path d="M6632 3060 c0 -14 2 -19 5 -12 2 6 2 18 0 25 -3 6 -5 1 -5 -13z"/>
<path d="M6623 2980 c0 -25 2 -35 4 -22 2 12 2 32 0 45 -2 12 -4 2 -4 -23z"/>
<path d="M8917 2188 c-19 -29 -50 -79 -71 -111 -39 -61 -80 -156 -72 -165 3
-3 12 10 20 28 7 18 15 28 17 21 5 -13 33 10 58 47 11 16 18 19 28 10 12 -10
18 0 14 25 0 4 4 6 10 5 11 -3 16 10 23 59 4 27 -17 48 -36 37 -8 -5 -6 3 5
19 9 15 24 38 33 52 9 14 14 25 10 25 -3 0 -21 -24 -39 -52z m-79 -173 c-6
-14 -13 -23 -15 -21 -5 5 15 46 22 46 3 0 -1 -11 -7 -25z"/>
<path d="M8152 1887 c-29 -56 -46 -93 -37 -82 19 23 98 176 93 180 -2 2 -27
-42 -56 -98z"/>
<path d="M8080 1759 c-7 -11 -10 -23 -7 -25 2 -2 9 7 15 21 14 30 7 33 -8 4z"/>
<path d="M7080 1700 c6 -11 13 -20 16 -20 2 0 0 9 -6 20 -6 11 -13 20 -16 20
-2 0 0 -9 6 -20z"/>
<path d="M5280 1793 c1 -14 30 -48 30 -34 0 7 -7 19 -15 27 -8 9 -15 12 -15 7z"/>
</g>
</svg>
